<svg xmlns="http://www.w3.org/2000/svg" xmlns:xlink="http://www.w3.org/1999/xlink" width="257" zoomAndPan="magnify" viewBox="0 0 192.75 60" height="80" preserveAspectRatio="xMidYMid meet" version="1.0"><defs><clipPath id="f22efc527a"><path d="M 0 0.0390625 L 192.5 0.0390625 L 192.5 59.960938 L 0 59.960938 Z M 0 0.0390625 " clip-rule="nonzero"/></clipPath></defs><g clip-path="url(#f22efc527a)"><path fill="#ffffff" d="M 0 0.0390625 L 192.5 0.0390625 L 192.5 59.960938 L 0 59.960938 Z M 0 0.0390625 " fill-opacity="1" fill-rule="nonzero"/><path fill="#ffffff" d="M 0 0.0390625 L 192.5 0.0390625 L 192.5 59.960938 L 0 59.960938 Z M 0 0.0390625 " fill-opacity="1" fill-rule="nonzero"/></g><path fill="#131347" d="M 128.828125 5.015625 C 128.402344 5.277344 127.613281 6.933594 123.417969 16.496094 C 120.710938 22.644531 118.503906 27.679688 118.503906 27.699219 C 118.503906 27.699219 119.25 27.519531 120.144531 27.289062 C 121.113281 27.023438 122.574219 26.832031 123.808594 26.761719 L 125.867188 26.652344 L 127.507812 22.535156 C 129.15625 18.359375 129.457031 17.886719 130.097656 18.242188 C 130.265625 18.34375 131.257812 20.546875 132.542969 23.75 L 134.671875 29.085938 L 129.191406 29.191406 C 123.628906 29.3125 122.238281 29.457031 120.179688 30.140625 C 118.824219 30.601562 117.945312 31.183594 116.90625 32.3125 C 115.566406 33.75 114.929688 35.125 115.019531 36.339844 C 115.195312 38.46875 117.449219 39.808594 119.441406 38.964844 C 120.003906 38.734375 121.148438 37.589844 121.148438 37.269531 C 121.148438 36.957031 122.273438 35.832031 122.980469 35.460938 C 123.683594 35.089844 123.894531 35.070312 130.355469 35.019531 L 137.015625 34.964844 L 137.28125 35.636719 C 138.425781 38.367188 139.074219 39.035156 140.765625 39.175781 C 142.753906 39.335938 144.21875 38.066406 144.339844 36.074219 C 144.410156 35.089844 144.289062 34.777344 137.964844 20.371094 C 132.996094 9.011719 131.417969 5.558594 131.011719 5.175781 C 130.371094 4.609375 129.582031 4.539062 128.828125 5.015625 Z M 128.828125 5.015625 " fill-opacity="1" fill-rule="nonzero"/><path fill="#b4b4b4" d="M 28 5.125 C 21.394531 6.527344 16.203125 11.476562 14.40625 18.082031 C 14.070312 19.351562 14 20 14.015625 22.394531 C 14.015625 24.773438 14.070312 25.4375 14.421875 26.707031 C 16.222656 33.417969 21.75 38.46875 28.5625 39.667969 C 31.523438 40.179688 35.464844 39.753906 37.929688 38.628906 L 38.832031 38.210938 L 37.15625 37.996094 C 32.082031 37.34375 28.035156 35.441406 24.953125 32.273438 C 24.480469 31.78125 23.460938 30.441406 22.699219 29.296875 C 20.921875 26.617188 20.390625 25.109375 20.375 22.570312 C 20.355469 20.40625 20.585938 19.332031 21.570312 17.285156 C 22.894531 14.5625 25.359375 12.324219 28.144531 11.351562 C 29.144531 11.023438 29.652344 10.953125 31.523438 10.953125 C 33.492188 10.96875 33.847656 11.023438 34.9375 11.441406 C 38.230469 12.746094 40.660156 15.28125 41.875 18.644531 C 42.472656 20.320312 42.613281 23.183594 42.195312 24.984375 C 41.191406 29.277344 37.632812 32.816406 33.40625 33.730469 L 31.996094 34.03125 L 33.421875 34.511719 C 35.550781 35.210938 37.824219 35.550781 40.570312 35.585938 L 43 35.601562 L 44.128906 34.386719 C 46.1875 32.167969 47.597656 29.632812 48.394531 26.722656 C 48.777344 25.265625 48.828125 24.664062 48.847656 22.394531 C 48.847656 20.511719 48.757812 19.421875 48.546875 18.574219 C 47.242188 13.328125 43.878906 9.046875 39.234375 6.703125 C 36.609375 5.382812 35.042969 5.015625 31.871094 4.945312 C 30.023438 4.910156 28.773438 4.964844 28 5.125 Z M 28 5.125 " fill-opacity="1" fill-rule="nonzero"/><path fill="#b4b4b4" d="M 68.253906 5.070312 C 61.140625 6.109375 55.402344 11.335938 53.601562 18.429688 C 53.148438 20.246094 53.148438 24.683594 53.601562 26.359375 C 54.585938 30.023438 56.207031 32.78125 58.761719 35.160156 C 63.410156 39.511719 69.886719 40.96875 75.75 39.035156 C 77.761719 38.367188 79.644531 37.394531 80.105469 36.816406 C 80.613281 36.164062 80.894531 35.140625 80.753906 34.371094 C 80.503906 33.046875 78.554688 31.621094 77.355469 31.886719 C 77.089844 31.957031 76.230469 32.3125 75.457031 32.695312 C 73.460938 33.683594 72.113281 33.996094 70.171875 33.890625 C 66.160156 33.667969 62.636719 31.253906 60.839844 27.503906 C 59.855469 25.457031 59.625 24.382812 59.640625 22.21875 C 59.660156 19.121094 60.820312 16.425781 63.128906 14.117188 C 65.648438 11.582031 69.238281 10.402344 72.40625 11.058594 C 72.921875 11.15625 74.082031 11.601562 74.980469 12.023438 C 76.929688 12.921875 77.585938 13.082031 78.445312 12.796875 C 80.371094 12.167969 81.230469 10.050781 80.246094 8.308594 C 79.769531 7.449219 78.179688 6.546875 75.804688 5.773438 C 73.238281 4.945312 70.738281 4.699219 68.253906 5.070312 Z M 68.253906 5.070312 " fill-opacity="1" fill-rule="nonzero"/><path fill="#b4b4b4" d="M 150.257812 5.210938 C 149.09375 5.949219 149.148438 5.054688 149.148438 21.675781 C 149.148438 31.886719 149.203125 36.886719 149.335938 37.222656 C 149.585938 37.890625 150.347656 38.679688 151.03125 38.964844 C 152.652344 39.667969 154.691406 38.824219 155.289062 37.222656 C 155.414062 36.886719 155.484375 33.5625 155.484375 27.398438 C 155.484375 22.269531 155.535156 18.082031 155.625 18.101562 C 155.695312 18.101562 159.953125 22.855469 165.082031 28.683594 C 170.222656 34.492188 174.660156 39.40625 174.945312 39.582031 C 176.015625 40.25 177.675781 39.808594 178.199219 38.734375 C 178.324219 38.449219 178.464844 37.484375 178.519531 36.570312 L 178.589844 34.894531 L 174.394531 29.96875 C 169.65625 24.382812 153.25 5.613281 152.777344 5.242188 C 152.261719 4.824219 150.90625 4.804688 150.257812 5.210938 Z M 150.257812 5.210938 " fill-opacity="1" fill-rule="nonzero"/><path fill="#b4b4b4" d="M 93.011719 5.59375 C 90.050781 5.984375 88.007812 7.339844 86.882812 9.683594 C 85.898438 11.742188 85.84375 12.445312 85.84375 22.484375 C 85.84375 30.371094 85.898438 31.726562 86.144531 32.835938 C 86.863281 35.957031 88.222656 37.609375 90.953125 38.699219 C 92.007812 39.125 92.007812 39.125 100.601562 39.175781 C 109.121094 39.230469 109.191406 39.230469 109.863281 38.839844 C 110.847656 38.296875 111.339844 37.308594 111.253906 36.109375 C 111.167969 35.019531 110.761719 34.371094 109.863281 33.839844 C 109.296875 33.507812 108.859375 33.492188 101.953125 33.402344 C 93.855469 33.296875 94.066406 33.332031 93.328125 32.132812 C 92.691406 31.078125 92.585938 29.578125 92.675781 21.675781 C 92.746094 13.78125 92.78125 13.3125 93.535156 12.355469 C 94.332031 11.335938 94.527344 11.316406 102.394531 11.210938 C 109.507812 11.128906 109.617188 11.128906 110.160156 10.738281 C 111.796875 9.578125 111.601562 6.773438 109.828125 5.789062 C 109.316406 5.523438 108.523438 5.488281 101.695312 5.472656 C 97.535156 5.453125 93.625 5.507812 93.011719 5.59375 Z M 93.011719 5.59375 " fill-opacity="1" fill-rule="nonzero"/><path fill="#b4b4b4" d="M 173.886719 5.824219 C 173.199219 6.144531 172.65625 6.738281 172.300781 7.554688 C 172.070312 8.113281 172.035156 9.347656 172.035156 15.777344 L 172.035156 23.328125 L 175.171875 27.023438 C 176.878906 29.066406 178.359375 30.742188 178.429688 30.742188 C 178.5 30.757812 178.535156 25.632812 178.519531 19.351562 C 178.464844 8.59375 178.445312 7.917969 178.128906 7.289062 C 177.605469 6.214844 176.773438 5.683594 175.484375 5.632812 C 174.835938 5.59375 174.199219 5.667969 173.886719 5.824219 Z M 173.886719 5.824219 " fill-opacity="1" fill-rule="nonzero"/><path fill="#b4b4b4" d="M 97.324219 19.734375 C 95.8125 20.300781 95.070312 21.726562 95.476562 23.308594 C 95.707031 24.207031 96.726562 25.230469 97.589844 25.390625 C 97.90625 25.4375 100.71875 25.472656 103.839844 25.4375 C 109.261719 25.390625 109.527344 25.375 110.003906 25.019531 C 110.867188 24.382812 111.285156 23.574219 111.285156 22.625 C 111.285156 21.464844 110.867188 20.621094 110.003906 20.054688 L 109.296875 19.574219 L 103.644531 19.539062 C 99.175781 19.503906 97.855469 19.539062 97.324219 19.734375 Z M 97.324219 19.734375 " fill-opacity="1" fill-rule="nonzero"/><path fill="#b4b4b4" d="M 91.265625 47.257812 C 90.171875 47.578125 89.066406 48.492188 88.523438 49.492188 C 88.203125 50.078125 88.132812 50.496094 88.132812 51.800781 C 88.132812 53.652344 88.46875 54.460938 89.632812 55.460938 C 91.316406 56.90625 94.4375 56.945312 95.914062 55.550781 L 96.320312 55.160156 L 95.949219 54.777344 L 95.582031 54.390625 L 94.804688 54.9375 C 94.136719 55.390625 93.890625 55.480469 92.941406 55.480469 C 91.726562 55.460938 91.039062 55.199219 90.296875 54.40625 C 88.59375 52.632812 89.101562 49.5625 91.300781 48.402344 C 91.953125 48.066406 93.765625 48.03125 94.386719 48.347656 C 94.632812 48.492188 94.980469 48.738281 95.191406 48.914062 C 95.546875 49.246094 95.566406 49.246094 95.949219 48.828125 L 96.335938 48.417969 L 95.796875 47.960938 C 95.15625 47.433594 93.730469 46.957031 92.816406 46.976562 C 92.460938 46.976562 91.777344 47.117188 91.265625 47.257812 Z M 91.265625 47.257812 " fill-opacity="1" fill-rule="nonzero"/><path fill="#b4b4b4" d="M 161.523438 47.257812 C 160.433594 47.578125 159.324219 48.492188 158.773438 49.492188 C 158.460938 50.078125 158.390625 50.496094 158.390625 51.800781 C 158.390625 53.652344 158.726562 54.460938 159.890625 55.460938 C 161.578125 56.90625 164.691406 56.945312 166.171875 55.550781 L 166.578125 55.160156 L 166.207031 54.777344 L 165.839844 54.390625 L 165.0625 54.9375 C 164.398438 55.390625 164.148438 55.480469 163.199219 55.480469 C 161.984375 55.460938 161.292969 55.199219 160.554688 54.40625 C 158.847656 52.632812 159.359375 49.5625 161.558594 48.402344 C 162.214844 48.066406 164.023438 48.03125 164.644531 48.347656 C 164.886719 48.492188 165.238281 48.738281 165.453125 48.914062 C 165.804688 49.246094 165.824219 49.246094 166.207031 48.828125 L 166.597656 48.417969 L 166.046875 47.960938 C 165.417969 47.433594 163.988281 46.957031 163.074219 46.976562 C 162.722656 46.976562 162.035156 47.117188 161.523438 47.257812 Z M 161.523438 47.257812 " fill-opacity="1" fill-rule="nonzero"/><path fill="#b4b4b4" d="M 100.898438 51.800781 L 100.898438 56.464844 L 107.59375 56.464844 L 107.59375 55.425781 L 104.914062 55.375 L 102.21875 55.320312 L 102.21875 52.332031 L 104.558594 52.277344 L 106.882812 52.222656 L 106.882812 51.1875 L 102.113281 51.1875 L 102.164062 49.722656 L 102.21875 48.277344 L 104.824219 48.226562 L 107.414062 48.171875 L 107.414062 47.132812 L 100.898438 47.132812 Z M 100.898438 51.800781 " fill-opacity="1" fill-rule="nonzero"/><path fill="#b4b4b4" d="M 112.347656 51.78125 L 112.347656 56.464844 L 113.578125 56.464844 L 113.578125 53.652344 L 115.125 53.652344 L 116.660156 53.667969 L 117.609375 55.054688 C 118.523438 56.414062 118.59375 56.464844 119.25 56.464844 L 119.933594 56.464844 L 118.859375 54.921875 C 117.910156 53.5625 117.820312 53.367188 118.085938 53.210938 C 119.371094 52.4375 119.828125 51.550781 119.703125 50.007812 C 119.597656 48.863281 119.210938 48.261719 118.140625 47.664062 C 117.429688 47.277344 117.136719 47.222656 114.859375 47.167969 L 112.347656 47.097656 Z M 116.835938 48.367188 C 117.875 48.597656 118.503906 49.386719 118.503906 50.40625 C 118.503906 51.097656 118.417969 51.308594 117.925781 51.800781 C 117.273438 52.453125 116.445312 52.648438 114.722656 52.5625 L 113.660156 52.507812 L 113.613281 50.585938 C 113.597656 49.511719 113.613281 48.542969 113.648438 48.417969 C 113.75 48.15625 115.746094 48.101562 116.835938 48.367188 Z M 116.835938 48.367188 " fill-opacity="1" fill-rule="nonzero"/><path fill="#b4b4b4" d="M 127.152344 47.878906 C 126.976562 48.296875 126.027344 50.390625 125.058594 52.542969 L 123.292969 56.464844 L 123.949219 56.464844 C 124.597656 56.464844 124.632812 56.449219 125.113281 55.320312 L 125.582031 54.175781 L 130.601562 54.175781 L 131.097656 55.320312 C 131.570312 56.449219 131.589844 56.464844 132.242188 56.464844 L 132.910156 56.464844 L 131.5 53.332031 C 130.726562 51.621094 129.796875 49.546875 129.421875 48.71875 C 128.792969 47.257812 128.757812 47.222656 128.121094 47.167969 C 127.523438 47.117188 127.472656 47.152344 127.152344 47.878906 Z M 129.492188 51.660156 L 130.113281 53.121094 L 126.078125 53.121094 L 126.238281 52.714844 C 126.328125 52.507812 126.699219 51.660156 127.046875 50.832031 C 127.398438 50.007812 127.789062 49.140625 127.878906 48.898438 C 128.050781 48.472656 128.066406 48.472656 128.472656 49.335938 C 128.6875 49.8125 129.15625 50.867188 129.492188 51.660156 Z M 129.492188 51.660156 " fill-opacity="1" fill-rule="nonzero"/><path fill="#b4b4b4" d="M 136.996094 51.800781 L 136.996094 56.464844 L 138.230469 56.464844 L 138.265625 53.121094 L 138.320312 49.792969 L 139.898438 52.472656 C 141.0625 54.40625 141.59375 55.160156 141.859375 55.199219 C 142.171875 55.25 142.507812 54.796875 143.882812 52.472656 L 145.539062 49.6875 L 145.589844 53.066406 L 145.628906 56.464844 L 146.859375 56.464844 L 146.859375 47.117188 L 146.3125 47.167969 C 145.78125 47.222656 145.628906 47.433594 143.882812 50.425781 C 142.859375 52.1875 141.980469 53.632812 141.929688 53.652344 C 141.875 53.652344 140.972656 52.171875 139.933594 50.390625 C 138.140625 47.347656 137.980469 47.132812 137.503906 47.132812 L 136.996094 47.132812 Z M 136.996094 51.800781 " fill-opacity="1" fill-rule="nonzero"/><path fill="#b4b4b4" d="M 152.316406 51.800781 L 152.316406 56.464844 L 153.550781 56.464844 L 153.550781 47.132812 L 152.316406 47.132812 Z M 152.316406 51.800781 " fill-opacity="1" fill-rule="nonzero"/><path fill="#b4b4b4" d="M 173.460938 47.878906 C 173.285156 48.296875 172.335938 50.390625 171.367188 52.542969 L 169.605469 56.464844 L 170.261719 56.464844 C 170.910156 56.464844 170.945312 56.449219 171.421875 55.320312 L 171.894531 54.175781 L 176.914062 54.175781 L 177.410156 55.320312 C 177.882812 56.449219 177.898438 56.464844 178.554688 56.464844 L 179.21875 56.464844 L 177.808594 53.332031 C 177.039062 51.621094 176.105469 49.546875 175.734375 48.71875 C 175.101562 47.257812 175.066406 47.222656 174.429688 47.167969 C 173.835938 47.117188 173.78125 47.152344 173.460938 47.878906 Z M 175.804688 51.660156 L 176.425781 53.121094 L 172.390625 53.121094 L 172.546875 52.714844 C 172.636719 52.507812 173.003906 51.660156 173.355469 50.832031 C 173.710938 50.007812 174.101562 49.140625 174.183594 48.898438 C 174.359375 48.472656 174.378906 48.472656 174.785156 49.335938 C 174.996094 49.8125 175.46875 50.867188 175.804688 51.660156 Z M 175.804688 51.660156 " fill-opacity="1" fill-rule="nonzero"/></svg>