<svg xmlns="http://www.w3.org/2000/svg" xmlns:xlink="http://www.w3.org/1999/xlink" width="257" zoomAndPan="magnify" viewBox="0 0 192.75 60" height="80" preserveAspectRatio="xMidYMid meet" version="1.0"><defs><clipPath id="1801d4a7b2"><path d="M 0 0.0390625 L 192.5 0.0390625 L 192.5 59.960938 L 0 59.960938 Z M 0 0.0390625 " clip-rule="nonzero"/></clipPath></defs><g clip-path="url(#1801d4a7b2)"><path fill="#ffffff" d="M 0 0.0390625 L 192.5 0.0390625 L 192.5 59.960938 L 0 59.960938 Z M 0 0.0390625 " fill-opacity="1" fill-rule="nonzero"/><path fill="#ffffff" d="M 0 0.0390625 L 192.5 0.0390625 L 192.5 59.960938 L 0 59.960938 Z M 0 0.0390625 " fill-opacity="1" fill-rule="nonzero"/></g><path fill="#b4b4b4" d="M 128.773438 5.054688 C 128.347656 5.316406 127.558594 6.96875 123.371094 16.515625 C 120.667969 22.652344 118.464844 27.683594 118.464844 27.699219 C 118.464844 27.699219 119.207031 27.523438 120.101562 27.292969 C 121.070312 27.027344 122.53125 26.835938 123.761719 26.765625 L 125.816406 26.65625 L 127.453125 22.546875 C 129.101562 18.378906 129.402344 17.90625 130.039062 18.257812 C 130.210938 18.359375 131.199219 20.5625 132.484375 23.761719 L 134.609375 29.085938 L 129.136719 29.191406 C 123.582031 29.3125 122.195312 29.457031 120.136719 30.136719 C 118.785156 30.597656 117.90625 31.179688 116.871094 32.304688 C 115.53125 33.742188 114.898438 35.113281 114.984375 36.328125 C 115.164062 38.453125 117.410156 39.789062 119.402344 38.949219 C 119.960938 38.71875 121.105469 37.578125 121.105469 37.257812 C 121.105469 36.945312 122.230469 35.820312 122.9375 35.449219 C 123.636719 35.078125 123.847656 35.0625 130.296875 35.007812 L 136.945312 34.957031 L 137.210938 35.628906 C 138.355469 38.355469 139.003906 39.019531 140.691406 39.160156 C 142.675781 39.320312 144.136719 38.054688 144.261719 36.0625 C 144.332031 35.078125 144.207031 34.765625 137.894531 20.386719 C 132.9375 9.042969 131.359375 5.597656 130.953125 5.214844 C 130.316406 4.648438 129.527344 4.578125 128.773438 5.054688 Z M 128.773438 5.054688 " fill-opacity="1" fill-rule="nonzero"/><path fill="#b4b4b4" d="M 28.105469 5.160156 C 21.511719 6.5625 16.328125 11.503906 14.53125 18.101562 C 14.195312 19.367188 14.125 20.015625 14.144531 22.40625 C 14.144531 24.777344 14.195312 25.445312 14.550781 26.710938 C 16.34375 33.414062 21.863281 38.453125 28.667969 39.648438 C 31.621094 40.160156 35.554688 39.738281 38.019531 38.613281 L 38.917969 38.195312 L 37.246094 37.984375 C 32.183594 37.328125 28.140625 35.433594 25.0625 32.269531 C 24.589844 31.777344 23.570312 30.4375 22.8125 29.296875 C 21.039062 26.621094 20.507812 25.113281 20.492188 22.582031 C 20.472656 20.421875 20.703125 19.347656 21.6875 17.304688 C 23.007812 14.585938 25.46875 12.351562 28.246094 11.382812 C 29.25 11.050781 29.753906 10.980469 31.621094 10.980469 C 33.589844 11 33.941406 11.050781 35.03125 11.46875 C 38.320312 12.769531 40.746094 15.304688 41.957031 18.660156 C 42.554688 20.332031 42.695312 23.195312 42.277344 24.992188 C 41.273438 29.277344 37.722656 32.8125 33.5 33.726562 L 32.09375 34.023438 L 33.519531 34.503906 C 35.644531 35.203125 37.914062 35.539062 40.65625 35.574219 L 43.082031 35.589844 L 44.207031 34.378906 C 46.261719 32.164062 47.671875 29.632812 48.464844 26.726562 C 48.847656 25.273438 48.902344 24.671875 48.917969 22.40625 C 48.917969 20.527344 48.832031 19.4375 48.617188 18.589844 C 47.316406 13.355469 43.960938 9.078125 39.320312 6.738281 C 36.699219 5.421875 35.136719 5.054688 31.96875 4.984375 C 30.125 4.949219 28.878906 5.003906 28.105469 5.160156 Z M 28.105469 5.160156 " fill-opacity="1" fill-rule="nonzero"/><path fill="#131347" d="M 68.296875 5.109375 C 61.191406 6.144531 55.460938 11.363281 53.667969 18.449219 C 53.210938 20.261719 53.210938 24.691406 53.667969 26.363281 C 54.648438 30.019531 56.269531 32.777344 58.820312 35.148438 C 63.460938 39.496094 69.925781 40.949219 75.78125 39.019531 C 77.789062 38.355469 79.667969 37.382812 80.125 36.804688 C 80.632812 36.152344 80.914062 35.132812 80.773438 34.359375 C 80.527344 33.042969 78.578125 31.617188 77.382812 31.882812 C 77.117188 31.953125 76.257812 32.304688 75.484375 32.6875 C 73.496094 33.679688 72.148438 33.988281 70.210938 33.882812 C 66.203125 33.660156 62.6875 31.25 60.890625 27.503906 C 59.910156 25.460938 59.679688 24.390625 59.695312 22.230469 C 59.714844 19.136719 60.875 16.445312 63.175781 14.144531 C 65.691406 11.609375 69.277344 10.433594 72.441406 11.085938 C 72.953125 11.1875 74.113281 11.628906 75.007812 12.050781 C 76.957031 12.949219 77.613281 13.105469 78.472656 12.824219 C 80.390625 12.195312 81.25 10.078125 80.269531 8.34375 C 79.792969 7.480469 78.207031 6.582031 75.832031 5.808594 C 73.273438 4.984375 70.773438 4.738281 68.296875 5.109375 Z M 68.296875 5.109375 " fill-opacity="1" fill-rule="nonzero"/><path fill="#b4b4b4" d="M 150.167969 5.25 C 149.007812 5.984375 149.0625 5.089844 149.0625 21.6875 C 149.0625 31.882812 149.113281 36.875 149.25 37.210938 C 149.496094 37.875 150.257812 38.664062 150.941406 38.949219 C 152.558594 39.648438 154.597656 38.808594 155.191406 37.210938 C 155.316406 36.875 155.386719 33.554688 155.386719 27.398438 C 155.386719 22.28125 155.4375 18.101562 155.527344 18.117188 C 155.597656 18.117188 159.851562 22.863281 164.96875 28.683594 C 170.101562 34.484375 174.53125 39.390625 174.816406 39.566406 C 175.886719 40.234375 177.542969 39.789062 178.066406 38.71875 C 178.1875 38.4375 178.332031 37.46875 178.382812 36.558594 L 178.453125 34.886719 L 174.265625 29.96875 C 169.539062 24.390625 153.152344 5.652344 152.683594 5.28125 C 152.171875 4.863281 150.816406 4.84375 150.167969 5.25 Z M 150.167969 5.25 " fill-opacity="1" fill-rule="nonzero"/><path fill="#b4b4b4" d="M 93.011719 5.632812 C 90.054688 6.023438 88.019531 7.375 86.894531 9.714844 C 85.910156 11.769531 85.855469 12.46875 85.855469 22.492188 C 85.855469 30.367188 85.910156 31.722656 86.15625 32.828125 C 86.875 35.945312 88.230469 37.59375 90.957031 38.683594 C 92.011719 39.109375 92.011719 39.109375 100.59375 39.160156 C 109.097656 39.214844 109.167969 39.214844 109.839844 38.824219 C 110.820312 38.28125 111.3125 37.292969 111.226562 36.097656 C 111.140625 35.007812 110.734375 34.359375 109.839844 33.832031 C 109.273438 33.5 108.835938 33.484375 101.941406 33.394531 C 93.855469 33.289062 94.066406 33.324219 93.332031 32.128906 C 92.695312 31.074219 92.589844 29.578125 92.675781 21.6875 C 92.746094 13.808594 92.78125 13.335938 93.535156 12.382812 C 94.332031 11.363281 94.527344 11.34375 102.382812 11.238281 C 109.484375 11.15625 109.589844 11.15625 110.132812 10.769531 C 111.769531 9.609375 111.574219 6.8125 109.804688 5.828125 C 109.289062 5.5625 108.5 5.527344 101.679688 5.507812 C 97.53125 5.492188 93.625 5.542969 93.011719 5.632812 Z M 93.011719 5.632812 " fill-opacity="1" fill-rule="nonzero"/><path fill="#b4b4b4" d="M 173.761719 5.863281 C 173.070312 6.179688 172.53125 6.777344 172.175781 7.589844 C 171.945312 8.148438 171.910156 9.378906 171.910156 15.796875 L 171.910156 23.335938 L 175.042969 27.027344 C 176.746094 29.066406 178.226562 30.738281 178.296875 30.738281 C 178.367188 30.757812 178.402344 25.640625 178.382812 19.367188 C 178.332031 8.625 178.3125 7.953125 177.996094 7.324219 C 177.472656 6.25 176.640625 5.722656 175.355469 5.667969 C 174.707031 5.632812 174.074219 5.703125 173.761719 5.863281 Z M 173.761719 5.863281 " fill-opacity="1" fill-rule="nonzero"/><path fill="#b4b4b4" d="M 97.316406 19.75 C 95.808594 20.316406 95.066406 21.738281 95.472656 23.320312 C 95.703125 24.214844 96.722656 25.238281 97.582031 25.398438 C 97.902344 25.445312 100.710938 25.480469 103.824219 25.445312 C 109.238281 25.398438 109.503906 25.378906 109.980469 25.027344 C 110.839844 24.390625 111.257812 23.582031 111.257812 22.636719 C 111.257812 21.476562 110.839844 20.632812 109.980469 20.066406 L 109.273438 19.589844 L 103.632812 19.554688 C 99.167969 19.519531 97.847656 19.554688 97.316406 19.75 Z M 97.316406 19.75 " fill-opacity="1" fill-rule="nonzero"/><path fill="#b4b4b4" d="M 91.269531 47.230469 C 90.179688 47.546875 89.074219 48.460938 88.53125 49.460938 C 88.210938 50.042969 88.140625 50.460938 88.140625 51.765625 C 88.140625 53.613281 88.476562 54.417969 89.636719 55.421875 C 91.324219 56.863281 94.4375 56.898438 95.910156 55.507812 L 96.316406 55.121094 L 95.945312 54.738281 L 95.582031 54.347656 L 94.804688 54.898438 C 94.136719 55.351562 93.890625 55.4375 92.941406 55.4375 C 91.730469 55.421875 91.046875 55.15625 90.304688 54.367188 C 88.601562 52.59375 89.109375 49.53125 91.304688 48.371094 C 91.957031 48.035156 93.765625 48 94.382812 48.320312 C 94.632812 48.460938 94.980469 48.707031 95.191406 48.882812 C 95.546875 49.214844 95.5625 49.214844 95.945312 48.796875 L 96.335938 48.390625 L 95.792969 47.929688 C 95.15625 47.40625 93.730469 46.929688 92.816406 46.945312 C 92.464844 46.945312 91.78125 47.085938 91.269531 47.230469 Z M 91.269531 47.230469 " fill-opacity="1" fill-rule="nonzero"/><path fill="#b4b4b4" d="M 161.417969 47.230469 C 160.328125 47.546875 159.21875 48.460938 158.671875 49.460938 C 158.359375 50.042969 158.289062 50.460938 158.289062 51.765625 C 158.289062 53.613281 158.625 54.417969 159.785156 55.421875 C 161.46875 56.863281 164.578125 56.898438 166.058594 55.507812 L 166.464844 55.121094 L 166.09375 54.738281 L 165.726562 54.347656 L 164.949219 54.898438 C 164.285156 55.351562 164.039062 55.4375 163.089844 55.4375 C 161.875 55.421875 161.1875 55.15625 160.449219 54.367188 C 158.742188 52.59375 159.253906 49.53125 161.453125 48.371094 C 162.105469 48.035156 163.914062 48 164.53125 48.320312 C 164.773438 48.460938 165.128906 48.707031 165.339844 48.882812 C 165.691406 49.214844 165.710938 49.214844 166.09375 48.796875 L 166.480469 48.390625 L 165.933594 47.929688 C 165.304688 47.40625 163.878906 46.929688 162.964844 46.945312 C 162.613281 46.945312 161.929688 47.085938 161.417969 47.230469 Z M 161.417969 47.230469 " fill-opacity="1" fill-rule="nonzero"/><path fill="#b4b4b4" d="M 100.886719 51.765625 L 100.886719 56.421875 L 107.570312 56.421875 L 107.570312 55.386719 L 104.898438 55.332031 L 102.207031 55.28125 L 102.207031 52.292969 L 104.542969 52.242188 L 106.863281 52.1875 L 106.863281 51.152344 L 102.101562 51.152344 L 102.152344 49.691406 L 102.207031 48.246094 L 104.808594 48.195312 L 107.394531 48.140625 L 107.394531 47.105469 L 100.886719 47.105469 Z M 100.886719 51.765625 " fill-opacity="1" fill-rule="nonzero"/><path fill="#b4b4b4" d="M 112.316406 51.746094 L 112.316406 56.421875 L 113.546875 56.421875 L 113.546875 53.613281 L 115.089844 53.613281 L 116.621094 53.628906 L 117.570312 55.015625 C 118.484375 56.371094 118.554688 56.421875 119.207031 56.421875 L 119.890625 56.421875 L 118.820312 54.878906 C 117.871094 53.523438 117.78125 53.332031 118.046875 53.171875 C 119.332031 52.398438 119.785156 51.515625 119.660156 49.972656 C 119.554688 48.832031 119.171875 48.230469 118.101562 47.636719 C 117.394531 47.246094 117.101562 47.195312 114.828125 47.140625 L 112.316406 47.070312 Z M 116.800781 48.335938 C 117.835938 48.566406 118.464844 49.355469 118.464844 50.375 C 118.464844 51.0625 118.378906 51.273438 117.890625 51.765625 C 117.234375 52.417969 116.410156 52.613281 114.691406 52.523438 L 113.632812 52.46875 L 113.582031 50.550781 C 113.566406 49.480469 113.582031 48.511719 113.621094 48.390625 C 113.71875 48.125 115.710938 48.070312 116.800781 48.335938 Z M 116.800781 48.335938 " fill-opacity="1" fill-rule="nonzero"/><path fill="#b4b4b4" d="M 127.101562 47.847656 C 126.921875 48.265625 125.976562 50.355469 125.007812 52.503906 L 123.25 56.421875 L 123.902344 56.421875 C 124.550781 56.421875 124.585938 56.40625 125.0625 55.28125 L 125.535156 54.136719 L 130.546875 54.136719 L 131.039062 55.28125 C 131.511719 56.40625 131.527344 56.421875 132.183594 56.421875 L 132.847656 56.421875 L 131.441406 53.296875 C 130.667969 51.585938 129.738281 49.515625 129.367188 48.691406 C 128.738281 47.230469 128.703125 47.195312 128.066406 47.140625 C 127.472656 47.085938 127.417969 47.121094 127.101562 47.847656 Z M 129.4375 51.621094 L 130.054688 53.082031 L 126.027344 53.082031 L 126.1875 52.675781 C 126.273438 52.46875 126.644531 51.621094 126.992188 50.796875 C 127.347656 49.972656 127.734375 49.109375 127.824219 48.867188 C 127.996094 48.441406 128.011719 48.441406 128.417969 49.300781 C 128.632812 49.777344 129.101562 50.832031 129.4375 51.621094 Z M 129.4375 51.621094 " fill-opacity="1" fill-rule="nonzero"/><path fill="#b4b4b4" d="M 136.929688 51.765625 L 136.929688 56.421875 L 138.160156 56.421875 L 138.195312 53.082031 L 138.25 49.761719 L 139.828125 52.433594 C 140.988281 54.367188 141.515625 55.121094 141.78125 55.15625 C 142.09375 55.210938 142.429688 54.753906 143.800781 52.433594 L 145.457031 49.65625 L 145.507812 53.03125 L 145.546875 56.421875 L 146.777344 56.421875 L 146.777344 47.085938 L 146.226562 47.140625 C 145.699219 47.195312 145.546875 47.40625 143.800781 50.390625 C 142.78125 52.152344 141.90625 53.59375 141.851562 53.613281 C 141.800781 53.613281 140.898438 52.136719 139.863281 50.355469 C 138.070312 47.316406 137.914062 47.105469 137.433594 47.105469 L 136.929688 47.105469 Z M 136.929688 51.765625 " fill-opacity="1" fill-rule="nonzero"/><path fill="#b4b4b4" d="M 152.222656 51.765625 L 152.222656 56.421875 L 153.453125 56.421875 L 153.453125 47.105469 L 152.222656 47.105469 Z M 152.222656 51.765625 " fill-opacity="1" fill-rule="nonzero"/><path fill="#b4b4b4" d="M 173.335938 47.847656 C 173.160156 48.265625 172.210938 50.355469 171.246094 52.503906 L 169.484375 56.421875 L 170.140625 56.421875 C 170.785156 56.421875 170.820312 56.40625 171.300781 55.28125 L 171.769531 54.136719 L 176.78125 54.136719 L 177.277344 55.28125 C 177.746094 56.40625 177.765625 56.421875 178.417969 56.421875 L 179.085938 56.421875 L 177.675781 53.296875 C 176.90625 51.585938 175.976562 49.515625 175.605469 48.691406 C 174.972656 47.230469 174.9375 47.195312 174.300781 47.140625 C 173.707031 47.085938 173.65625 47.121094 173.335938 47.847656 Z M 175.675781 51.621094 L 176.292969 53.082031 L 172.265625 53.082031 L 172.421875 52.675781 C 172.511719 52.46875 172.878906 51.621094 173.230469 50.796875 C 173.585938 49.972656 173.972656 49.109375 174.054688 48.867188 C 174.230469 48.441406 174.25 48.441406 174.65625 49.300781 C 174.867188 49.777344 175.339844 50.832031 175.675781 51.621094 Z M 175.675781 51.621094 " fill-opacity="1" fill-rule="nonzero"/></svg>