<svg xmlns="http://www.w3.org/2000/svg" xmlns:xlink="http://www.w3.org/1999/xlink" width="257" zoomAndPan="magnify" viewBox="0 0 192.75 60" height="80" preserveAspectRatio="xMidYMid meet" version="1.0"><defs><clipPath id="4ae519645e"><path d="M 0 0.0390625 L 192.5 0.0390625 L 192.5 59.960938 L 0 59.960938 Z M 0 0.0390625 " clip-rule="nonzero"/></clipPath></defs><g clip-path="url(#4ae519645e)"><path fill="#ffffff" d="M 0 0.0390625 L 192.5 0.0390625 L 192.5 59.960938 L 0 59.960938 Z M 0 0.0390625 " fill-opacity="1" fill-rule="nonzero"/><path fill="#ffffff" d="M 0 0.0390625 L 192.5 0.0390625 L 192.5 59.960938 L 0 59.960938 Z M 0 0.0390625 " fill-opacity="1" fill-rule="nonzero"/></g><path fill="#b4b4b4" d="M 127.527344 6.015625 C 127.117188 6.265625 126.359375 7.855469 122.332031 17.035156 C 119.734375 22.9375 117.617188 27.773438 117.617188 27.789062 C 117.617188 27.789062 118.328125 27.621094 119.191406 27.398438 C 120.121094 27.144531 121.523438 26.957031 122.707031 26.890625 L 124.683594 26.789062 L 126.257812 22.835938 C 127.84375 18.824219 128.132812 18.371094 128.746094 18.710938 C 128.910156 18.808594 129.859375 20.925781 131.09375 24 L 133.140625 29.121094 L 127.878906 29.222656 C 122.539062 29.339844 121.199219 29.476562 119.226562 30.132812 C 117.921875 30.578125 117.078125 31.136719 116.082031 32.21875 C 114.796875 33.601562 114.183594 34.917969 114.269531 36.085938 C 114.441406 38.128906 116.601562 39.417969 118.515625 38.605469 C 119.054688 38.386719 120.152344 37.285156 120.152344 36.980469 C 120.152344 36.679688 121.234375 35.597656 121.914062 35.242188 C 122.589844 34.886719 122.792969 34.867188 128.992188 34.816406 L 135.386719 34.765625 L 135.640625 35.414062 C 136.742188 38.035156 137.363281 38.675781 138.988281 38.808594 C 140.898438 38.964844 142.300781 37.746094 142.421875 35.832031 C 142.488281 34.886719 142.371094 34.585938 136.300781 20.757812 C 131.53125 9.847656 130.011719 6.535156 129.621094 6.167969 C 129.011719 5.625 128.25 5.558594 127.527344 6.015625 Z M 127.527344 6.015625 " fill-opacity="1" fill-rule="nonzero"/><path fill="#b4b4b4" d="M 30.726562 6.117188 C 24.386719 7.464844 19.402344 12.214844 17.675781 18.558594 C 17.351562 19.777344 17.285156 20.398438 17.300781 22.699219 C 17.300781 24.980469 17.351562 25.621094 17.691406 26.839844 C 19.417969 33.285156 24.726562 38.128906 31.265625 39.28125 C 34.109375 39.773438 37.890625 39.367188 40.257812 38.285156 L 41.125 37.882812 L 39.515625 37.679688 C 34.648438 37.050781 30.761719 35.226562 27.800781 32.183594 C 27.347656 31.707031 26.367188 30.421875 25.636719 29.324219 C 23.933594 26.753906 23.421875 25.304688 23.40625 22.867188 C 23.390625 20.789062 23.609375 19.761719 24.554688 17.792969 C 25.824219 15.179688 28.191406 13.03125 30.863281 12.097656 C 31.828125 11.78125 32.3125 11.710938 34.109375 11.710938 C 36 11.730469 36.339844 11.78125 37.386719 12.183594 C 40.546875 13.433594 42.882812 15.871094 44.046875 19.097656 C 44.621094 20.707031 44.753906 23.457031 44.351562 25.183594 C 43.390625 29.308594 39.976562 32.707031 35.914062 33.582031 L 34.5625 33.871094 L 35.933594 34.332031 C 37.976562 35.003906 40.15625 35.328125 42.796875 35.363281 L 45.128906 35.378906 L 46.210938 34.210938 C 48.1875 32.082031 49.539062 29.648438 50.304688 26.855469 C 50.671875 25.457031 50.722656 24.878906 50.742188 22.699219 C 50.742188 20.890625 50.65625 19.84375 50.453125 19.03125 C 49.199219 13.996094 45.972656 9.882812 41.511719 7.636719 C 38.992188 6.367188 37.488281 6.015625 34.441406 5.949219 C 32.671875 5.914062 31.46875 5.964844 30.726562 6.117188 Z M 30.726562 6.117188 " fill-opacity="1" fill-rule="nonzero"/><path fill="#b4b4b4" d="M 69.371094 6.066406 C 62.542969 7.0625 57.03125 12.082031 55.304688 18.894531 C 54.871094 20.636719 54.871094 24.894531 55.304688 26.503906 C 56.25 30.019531 57.808594 32.671875 60.261719 34.953125 C 64.722656 39.132812 70.941406 40.53125 76.570312 38.675781 C 78.5 38.035156 80.308594 37.101562 80.75 36.546875 C 81.238281 35.917969 81.507812 34.9375 81.371094 34.195312 C 81.136719 32.925781 79.261719 31.554688 78.109375 31.8125 C 77.855469 31.878906 77.03125 32.21875 76.289062 32.585938 C 74.375 33.539062 73.078125 33.839844 71.214844 33.734375 C 67.363281 33.519531 63.980469 31.203125 62.253906 27.601562 C 61.308594 25.636719 61.085938 24.605469 61.105469 22.527344 C 61.121094 19.554688 62.238281 16.96875 64.453125 14.753906 C 66.871094 12.320312 70.320312 11.1875 73.359375 11.816406 C 73.851562 11.910156 74.96875 12.335938 75.828125 12.742188 C 77.703125 13.605469 78.332031 13.757812 79.160156 13.484375 C 81.003906 12.878906 81.832031 10.847656 80.886719 9.175781 C 80.425781 8.347656 78.902344 7.480469 76.621094 6.742188 C 74.15625 5.949219 71.757812 5.710938 69.371094 6.066406 Z M 69.371094 6.066406 " fill-opacity="1" fill-rule="nonzero"/><path fill="#b4b4b4" d="M 148.101562 6.203125 C 146.984375 6.910156 147.035156 6.050781 147.035156 22.007812 C 147.035156 31.8125 147.085938 36.613281 147.21875 36.9375 C 147.457031 37.574219 148.1875 38.335938 148.84375 38.605469 C 150.398438 39.28125 152.359375 38.46875 152.929688 36.9375 C 153.050781 36.613281 153.117188 33.417969 153.117188 27.5 C 153.117188 22.578125 153.167969 18.558594 153.253906 18.578125 C 153.320312 18.578125 157.410156 23.140625 162.332031 28.734375 C 167.269531 34.3125 171.527344 39.03125 171.800781 39.199219 C 172.832031 39.839844 174.421875 39.417969 174.925781 38.386719 C 175.046875 38.113281 175.179688 37.183594 175.230469 36.308594 L 175.300781 34.699219 L 171.273438 29.96875 C 166.726562 24.605469 150.972656 6.585938 150.519531 6.230469 C 150.027344 5.828125 148.722656 5.8125 148.101562 6.203125 Z M 148.101562 6.203125 " fill-opacity="1" fill-rule="nonzero"/><path fill="#131347" d="M 93.140625 6.570312 C 90.296875 6.945312 88.339844 8.246094 87.257812 10.496094 C 86.3125 12.472656 86.261719 13.144531 86.261719 22.785156 C 86.261719 30.355469 86.3125 31.65625 86.550781 32.722656 C 87.238281 35.71875 88.542969 37.304688 91.164062 38.351562 C 92.179688 38.757812 92.179688 38.757812 100.429688 38.808594 C 108.605469 38.859375 108.675781 38.859375 109.320312 38.488281 C 110.265625 37.964844 110.734375 37.015625 110.65625 35.867188 C 110.570312 34.816406 110.179688 34.195312 109.320312 33.683594 C 108.777344 33.367188 108.355469 33.351562 101.726562 33.265625 C 93.949219 33.164062 94.15625 33.199219 93.445312 32.046875 C 92.835938 31.035156 92.734375 29.597656 92.816406 22.007812 C 92.886719 14.429688 92.917969 13.976562 93.644531 13.058594 C 94.410156 12.082031 94.597656 12.0625 102.152344 11.960938 C 108.980469 11.882812 109.082031 11.882812 109.601562 11.507812 C 111.175781 10.394531 110.992188 7.703125 109.285156 6.757812 C 108.792969 6.503906 108.035156 6.46875 101.476562 6.453125 C 97.484375 6.433594 93.730469 6.484375 93.140625 6.570312 Z M 93.140625 6.570312 " fill-opacity="1" fill-rule="nonzero"/><path fill="#b4b4b4" d="M 170.785156 6.792969 C 170.125 7.097656 169.601562 7.667969 169.261719 8.449219 C 169.042969 8.988281 169.007812 10.171875 169.007812 16.34375 L 169.007812 23.59375 L 172.019531 27.144531 C 173.65625 29.105469 175.078125 30.710938 175.148438 30.710938 C 175.214844 30.730469 175.25 25.808594 175.230469 19.777344 C 175.179688 9.449219 175.164062 8.800781 174.859375 8.195312 C 174.355469 7.164062 173.554688 6.65625 172.320312 6.605469 C 171.699219 6.570312 171.085938 6.636719 170.785156 6.792969 Z M 170.785156 6.792969 " fill-opacity="1" fill-rule="nonzero"/><path fill="#131347" d="M 97.28125 20.144531 C 95.832031 20.6875 95.117188 22.058594 95.507812 23.578125 C 95.730469 24.4375 96.707031 25.421875 97.535156 25.574219 C 97.839844 25.621094 100.542969 25.65625 103.539062 25.621094 C 108.742188 25.574219 108.996094 25.558594 109.457031 25.21875 C 110.28125 24.605469 110.683594 23.832031 110.683594 22.917969 C 110.683594 21.804688 110.28125 20.996094 109.457031 20.449219 L 108.777344 19.992188 L 103.351562 19.957031 C 99.058594 19.925781 97.789062 19.957031 97.28125 20.144531 Z M 97.28125 20.144531 " fill-opacity="1" fill-rule="nonzero"/><path fill="#b4b4b4" d="M 91.464844 46.570312 C 90.417969 46.875 89.351562 47.753906 88.832031 48.714844 C 88.523438 49.277344 88.457031 49.679688 88.457031 50.929688 C 88.457031 52.707031 88.78125 53.484375 89.894531 54.445312 C 91.515625 55.832031 94.511719 55.867188 95.925781 54.53125 L 96.316406 54.15625 L 95.960938 53.789062 L 95.609375 53.414062 L 94.863281 53.941406 C 94.222656 54.378906 93.984375 54.464844 93.074219 54.464844 C 91.90625 54.445312 91.25 54.191406 90.535156 53.433594 C 88.898438 51.726562 89.386719 48.78125 91.5 47.667969 C 92.128906 47.34375 93.867188 47.3125 94.460938 47.617188 C 94.699219 47.753906 95.03125 47.988281 95.234375 48.160156 C 95.574219 48.476562 95.59375 48.476562 95.960938 48.074219 L 96.335938 47.683594 L 95.8125 47.242188 C 95.203125 46.738281 93.832031 46.28125 92.953125 46.296875 C 92.613281 46.296875 91.957031 46.433594 91.464844 46.570312 Z M 91.464844 46.570312 " fill-opacity="1" fill-rule="nonzero"/><path fill="#b4b4b4" d="M 158.917969 46.570312 C 157.871094 46.875 156.804688 47.753906 156.277344 48.714844 C 155.976562 49.277344 155.910156 49.679688 155.910156 50.929688 C 155.910156 52.707031 156.234375 53.484375 157.347656 54.445312 C 158.96875 55.832031 161.957031 55.867188 163.378906 54.53125 L 163.769531 54.15625 L 163.414062 53.789062 L 163.0625 53.414062 L 162.316406 53.941406 C 161.675781 54.378906 161.4375 54.464844 160.527344 54.464844 C 159.359375 54.445312 158.695312 54.191406 157.988281 53.433594 C 156.347656 51.726562 156.839844 48.78125 158.949219 47.667969 C 159.578125 47.34375 161.316406 47.3125 161.914062 47.617188 C 162.144531 47.753906 162.484375 47.988281 162.6875 48.160156 C 163.027344 48.476562 163.046875 48.476562 163.414062 48.074219 L 163.789062 47.683594 L 163.261719 47.242188 C 162.65625 46.738281 161.285156 46.28125 160.40625 46.296875 C 160.066406 46.296875 159.410156 46.433594 158.917969 46.570312 Z M 158.917969 46.570312 " fill-opacity="1" fill-rule="nonzero"/><path fill="#b4b4b4" d="M 100.710938 50.929688 L 100.710938 55.410156 L 107.140625 55.410156 L 107.140625 54.410156 L 104.570312 54.359375 L 101.980469 54.308594 L 101.980469 51.4375 L 104.230469 51.386719 L 106.460938 51.335938 L 106.460938 50.339844 L 101.878906 50.339844 L 101.929688 48.9375 L 101.980469 47.546875 L 104.484375 47.496094 L 106.96875 47.445312 L 106.96875 46.449219 L 100.710938 46.449219 Z M 100.710938 50.929688 " fill-opacity="1" fill-rule="nonzero"/><path fill="#b4b4b4" d="M 111.703125 50.914062 L 111.703125 55.410156 L 112.886719 55.410156 L 112.886719 52.707031 L 114.371094 52.707031 L 115.84375 52.722656 L 116.753906 54.054688 C 117.632812 55.359375 117.703125 55.410156 118.328125 55.410156 L 118.988281 55.410156 L 117.957031 53.925781 C 117.042969 52.621094 116.960938 52.4375 117.214844 52.28125 C 118.449219 51.539062 118.886719 50.691406 118.765625 49.207031 C 118.664062 48.109375 118.296875 47.53125 117.265625 46.960938 C 116.585938 46.585938 116.300781 46.535156 114.117188 46.484375 L 111.703125 46.414062 Z M 116.015625 47.632812 C 117.011719 47.855469 117.617188 48.613281 117.617188 49.59375 C 117.617188 50.253906 117.53125 50.460938 117.0625 50.929688 C 116.433594 51.558594 115.640625 51.746094 113.988281 51.660156 L 112.96875 51.609375 L 112.921875 49.761719 C 112.90625 48.730469 112.921875 47.804688 112.957031 47.683594 C 113.050781 47.429688 114.964844 47.378906 116.015625 47.632812 Z M 116.015625 47.632812 " fill-opacity="1" fill-rule="nonzero"/><path fill="#b4b4b4" d="M 125.917969 47.164062 C 125.75 47.566406 124.835938 49.574219 123.90625 51.644531 L 122.214844 55.410156 L 122.84375 55.410156 C 123.464844 55.410156 123.5 55.390625 123.960938 54.308594 L 124.414062 53.210938 L 129.230469 53.210938 L 129.707031 54.308594 C 130.160156 55.390625 130.175781 55.410156 130.804688 55.410156 L 131.445312 55.410156 L 130.09375 52.402344 C 129.351562 50.757812 128.457031 48.765625 128.097656 47.972656 C 127.492188 46.570312 127.457031 46.535156 126.847656 46.484375 C 126.273438 46.433594 126.222656 46.46875 125.917969 47.164062 Z M 128.167969 50.792969 L 128.761719 52.199219 L 124.886719 52.199219 L 125.039062 51.808594 C 125.125 51.609375 125.484375 50.792969 125.816406 50 C 126.15625 49.207031 126.53125 48.375 126.613281 48.144531 C 126.777344 47.734375 126.796875 47.734375 127.1875 48.5625 C 127.390625 49.019531 127.84375 50.035156 128.167969 50.792969 Z M 128.167969 50.792969 " fill-opacity="1" fill-rule="nonzero"/><path fill="#b4b4b4" d="M 135.371094 50.929688 L 135.371094 55.410156 L 136.554688 55.410156 L 136.585938 52.199219 L 136.636719 49.003906 L 138.15625 51.574219 C 139.273438 53.433594 139.78125 54.15625 140.035156 54.191406 C 140.335938 54.242188 140.660156 53.804688 141.980469 51.574219 L 143.570312 48.902344 L 143.621094 52.148438 L 143.65625 55.410156 L 144.839844 55.410156 L 144.839844 46.433594 L 144.3125 46.484375 C 143.800781 46.535156 143.65625 46.738281 141.980469 49.609375 C 141 51.304688 140.15625 52.691406 140.105469 52.707031 C 140.054688 52.707031 139.1875 51.285156 138.191406 49.574219 C 136.46875 46.652344 136.316406 46.449219 135.855469 46.449219 L 135.371094 46.449219 Z M 135.371094 50.929688 " fill-opacity="1" fill-rule="nonzero"/><path fill="#b4b4b4" d="M 150.078125 50.929688 L 150.078125 55.410156 L 151.261719 55.410156 L 151.261719 46.449219 L 150.078125 46.449219 Z M 150.078125 50.929688 " fill-opacity="1" fill-rule="nonzero"/><path fill="#b4b4b4" d="M 170.378906 47.164062 C 170.210938 47.566406 169.296875 49.574219 168.367188 51.644531 L 166.675781 55.410156 L 167.304688 55.410156 C 167.925781 55.410156 167.960938 55.390625 168.417969 54.308594 L 168.871094 53.210938 L 173.691406 53.210938 L 174.167969 54.308594 C 174.621094 55.390625 174.636719 55.410156 175.265625 55.410156 L 175.90625 55.410156 L 174.554688 52.402344 C 173.8125 50.757812 172.917969 48.765625 172.558594 47.972656 C 171.953125 46.570312 171.917969 46.535156 171.308594 46.484375 C 170.734375 46.433594 170.683594 46.46875 170.378906 47.164062 Z M 172.628906 50.792969 L 173.222656 52.199219 L 169.347656 52.199219 L 169.5 51.808594 C 169.585938 51.609375 169.9375 50.792969 170.277344 50 C 170.617188 49.207031 170.992188 48.375 171.070312 48.144531 C 171.238281 47.734375 171.257812 47.734375 171.648438 48.5625 C 171.851562 49.019531 172.304688 50.035156 172.628906 50.792969 Z M 172.628906 50.792969 " fill-opacity="1" fill-rule="nonzero"/></svg>