<?xml version="1.0" encoding="utf-8"?>
<svg viewBox="0 0 156.75 38.999999" xmlns="http://www.w3.org/2000/svg">
  <path d="M 99.949219 2.957031 C 99.667969 3.128906 99.144531 4.226562 96.367188 10.558594 C 94.574219 14.628906 93.113281 17.964844 93.113281 17.976562 C 93.113281 17.976562 93.605469 17.859375 94.199219 17.707031 C 94.839844 17.53125 95.808594 17.402344 96.625 17.355469 L 97.988281 17.285156 L 99.074219 14.558594 C 100.167969 11.792969 100.367188 11.480469 100.789062 11.714844 C 100.902344 11.78125 101.558594 13.242188 102.410156 15.363281 L 103.820312 18.894531 L 100.191406 18.964844 C 96.507812 19.046875 95.585938 19.140625 94.222656 19.59375 C 93.324219 19.898438 92.742188 20.285156 92.054688 21.03125 C 91.167969 21.984375 90.746094 22.894531 90.804688 23.699219 C 90.921875 25.109375 92.414062 25.996094 93.734375 25.4375 C 94.105469 25.285156 94.863281 24.527344 94.863281 24.316406 C 94.863281 24.109375 95.609375 23.363281 96.078125 23.117188 C 96.542969 22.871094 96.683594 22.859375 100.960938 22.824219 L 105.371094 22.789062 L 105.546875 23.234375 C 106.304688 25.042969 106.734375 25.484375 107.855469 25.578125 C 109.171875 25.683594 110.140625 24.84375 110.222656 23.523438 C 110.269531 22.871094 110.1875 22.664062 106 13.125 C 102.710938 5.601562 101.664062 3.316406 101.394531 3.0625 C 100.972656 2.6875 100.449219 2.640625 99.949219 2.957031 Z M 99.949219 2.957031 " fill-opacity="1" fill-rule="nonzero" fill="#737373" transform="matrix(0.9999999999999999, 0, 0, 0.9999999999999999, -5.684341886080802e-14, -2.842170943040401e-14)"/>
  <path d="M 33.179688 3.027344 C 28.804688 3.957031 25.367188 7.234375 24.175781 11.609375 C 23.953125 12.449219 23.90625 12.878906 23.917969 14.464844 C 23.917969 16.039062 23.953125 16.480469 24.1875 17.320312 C 25.378906 21.765625 29.039062 25.109375 33.550781 25.902344 C 35.511719 26.242188 38.121094 25.960938 39.753906 25.214844 L 40.351562 24.9375 L 39.242188 24.796875 C 35.882812 24.363281 33.203125 23.105469 31.160156 21.007812 C 30.847656 20.679688 30.171875 19.792969 29.667969 19.035156 C 28.492188 17.261719 28.140625 16.261719 28.128906 14.582031 C 28.117188 13.148438 28.269531 12.4375 28.921875 11.082031 C 29.796875 9.277344 31.429688 7.796875 33.273438 7.152344 C 33.9375 6.933594 34.273438 6.886719 35.511719 6.886719 C 36.816406 6.898438 37.050781 6.933594 37.773438 7.210938 C 39.953125 8.074219 41.5625 9.753906 42.367188 11.980469 C 42.761719 13.089844 42.855469 14.988281 42.578125 16.179688 C 41.914062 19.023438 39.558594 21.367188 36.757812 21.972656 L 35.824219 22.171875 L 36.769531 22.488281 C 38.179688 22.953125 39.683594 23.175781 41.503906 23.199219 L 43.113281 23.210938 L 43.859375 22.40625 C 45.222656 20.9375 46.15625 19.257812 46.683594 17.332031 C 46.9375 16.367188 46.972656 15.96875 46.984375 14.464844 C 46.984375 13.21875 46.925781 12.496094 46.785156 11.933594 C 45.921875 8.460938 43.695312 5.625 40.617188 4.074219 C 38.878906 3.199219 37.84375 2.957031 35.742188 2.910156 C 34.519531 2.886719 33.691406 2.921875 33.179688 3.027344 Z M 33.179688 3.027344 " fill-opacity="1" fill-rule="nonzero" fill="#737373" transform="matrix(0.9999999999999999, 0, 0, 0.9999999999999999, -5.684341886080802e-14, -2.842170943040401e-14)"/>
  <path d="M 59.835938 2.992188 C 55.125 3.679688 51.324219 7.140625 50.132812 11.839844 C 49.832031 13.042969 49.832031 15.980469 50.132812 17.089844 C 50.785156 19.515625 51.859375 21.34375 53.550781 22.917969 C 56.628906 25.800781 60.917969 26.765625 64.800781 25.484375 C 66.132812 25.042969 67.378906 24.398438 67.683594 24.015625 C 68.019531 23.582031 68.207031 22.90625 68.113281 22.394531 C 67.949219 21.519531 66.65625 20.574219 65.863281 20.75 C 65.6875 20.796875 65.117188 21.03125 64.605469 21.285156 C 63.285156 21.941406 62.390625 22.148438 61.105469 22.078125 C 58.449219 21.929688 56.117188 20.332031 54.925781 17.847656 C 54.273438 16.492188 54.121094 15.78125 54.132812 14.347656 C 54.144531 12.296875 54.914062 10.511719 56.441406 8.984375 C 58.109375 7.304688 60.488281 6.523438 62.585938 6.957031 C 62.925781 7.023438 63.695312 7.316406 64.289062 7.597656 C 65.582031 8.191406 66.015625 8.296875 66.585938 8.109375 C 67.859375 7.691406 68.429688 6.289062 67.777344 5.136719 C 67.460938 4.566406 66.410156 3.96875 64.835938 3.457031 C 63.136719 2.910156 61.480469 2.746094 59.835938 2.992188 Z M 59.835938 2.992188 " fill-opacity="1" fill-rule="nonzero" fill="#737373" transform="matrix(0.9999999999999999, 0, 0, 0.9999999999999999, -5.684341886080802e-14, -2.842170943040401e-14)"/>
  <path d="M 114.140625 3.085938 C 113.371094 3.574219 113.40625 2.980469 113.40625 13.988281 C 113.40625 20.75 113.441406 24.0625 113.53125 24.285156 C 113.695312 24.726562 114.199219 25.25 114.652344 25.4375 C 115.726562 25.902344 117.078125 25.34375 117.472656 24.285156 C 117.554688 24.0625 117.601562 21.859375 117.601562 17.777344 C 117.601562 14.382812 117.636719 11.609375 117.695312 11.621094 C 117.742188 11.621094 120.5625 14.769531 123.957031 18.628906 C 127.363281 22.476562 130.300781 25.730469 130.488281 25.847656 C 131.199219 26.289062 132.296875 25.996094 132.644531 25.285156 C 132.726562 25.097656 132.820312 24.457031 132.855469 23.851562 L 132.902344 22.742188 L 130.125 19.480469 C 126.988281 15.78125 116.121094 3.351562 115.808594 3.105469 C 115.46875 2.828125 114.570312 2.816406 114.140625 3.085938 Z M 114.140625 3.085938 " fill-opacity="1" fill-rule="nonzero" style="fill: rgb(19, 19, 71);" transform="matrix(0.9999999999999999, 0, 0, 0.9999999999999999, -5.684341886080802e-14, -2.842170943040401e-14)"/>
  <path d="M 76.230469 3.339844 C 74.269531 3.597656 72.917969 4.496094 72.171875 6.046875 C 71.519531 7.410156 71.484375 7.875 71.484375 14.523438 C 71.484375 19.746094 71.519531 20.644531 71.683594 21.378906 C 72.160156 23.445312 73.058594 24.539062 74.867188 25.261719 C 75.566406 25.542969 75.566406 25.542969 81.257812 25.578125 C 86.898438 25.613281 86.945312 25.613281 87.390625 25.355469 C 88.042969 24.996094 88.367188 24.339844 88.3125 23.546875 C 88.253906 22.824219 87.984375 22.394531 87.390625 22.042969 C 87.015625 21.824219 86.726562 21.8125 82.152344 21.753906 C 76.789062 21.683594 76.929688 21.707031 76.441406 20.914062 C 76.019531 20.214844 75.949219 19.222656 76.007812 13.988281 C 76.054688 8.761719 76.078125 8.449219 76.578125 7.816406 C 77.105469 7.140625 77.234375 7.128906 82.445312 7.058594 C 87.15625 7.003906 87.226562 7.003906 87.585938 6.746094 C 88.671875 5.976562 88.542969 4.121094 87.367188 3.46875 C 87.027344 3.292969 86.503906 3.269531 81.980469 3.257812 C 79.226562 3.246094 76.636719 3.28125 76.230469 3.339844 Z M 76.230469 3.339844 " fill-opacity="1" fill-rule="nonzero" fill="#737373" transform="matrix(0.9999999999999999, 0, 0, 0.9999999999999999, -5.684341886080802e-14, -2.842170943040401e-14)"/>
  <path d="M 129.789062 3.492188 C 129.332031 3.703125 128.972656 4.097656 128.738281 4.636719 C 128.585938 5.007812 128.5625 5.824219 128.5625 10.082031 L 128.5625 15.082031 L 130.640625 17.53125 C 131.769531 18.882812 132.75 19.992188 132.796875 19.992188 C 132.84375 20.003906 132.867188 16.609375 132.855469 12.449219 C 132.820312 5.324219 132.808594 4.878906 132.597656 4.460938 C 132.25 3.75 131.699219 3.398438 130.847656 3.363281 C 130.417969 3.339844 129.996094 3.386719 129.789062 3.492188 Z M 129.789062 3.492188 " fill-opacity="1" fill-rule="nonzero" style="fill: rgb(19, 19, 71);" transform="matrix(0.9999999999999999, 0, 0, 0.9999999999999999, -5.684341886080802e-14, -2.842170943040401e-14)"/>
  <path d="M 79.085938 12.703125 C 78.085938 13.078125 77.59375 14.023438 77.863281 15.070312 C 78.015625 15.664062 78.691406 16.34375 79.261719 16.449219 C 79.472656 16.480469 81.335938 16.503906 83.402344 16.480469 C 86.992188 16.449219 87.167969 16.4375 87.484375 16.203125 C 88.054688 15.78125 88.332031 15.246094 88.332031 14.617188 C 88.332031 13.847656 88.054688 13.289062 87.484375 12.914062 L 87.015625 12.597656 L 83.273438 12.574219 C 80.3125 12.550781 79.4375 12.574219 79.085938 12.703125 Z M 79.085938 12.703125 " fill-opacity="1" fill-rule="nonzero" fill="#737373" transform="matrix(0.9999999999999999, 0, 0, 0.9999999999999999, -5.684341886080802e-14, -2.842170943040401e-14)"/>
  <path fill="#737373" d="M 75.074219 30.929688 C 74.351562 31.140625 73.617188 31.746094 73.257812 32.410156 C 73.046875 32.796875 73 33.074219 73 33.9375 C 73 35.164062 73.222656 35.699219 73.992188 36.363281 C 75.109375 37.320312 77.175781 37.34375 78.152344 36.421875 L 78.421875 36.164062 L 78.175781 35.910156 L 77.933594 35.652344 L 77.417969 36.015625 C 76.976562 36.316406 76.8125 36.375 76.183594 36.375 C 75.378906 36.363281 74.925781 36.1875 74.433594 35.664062 C 73.304688 34.488281 73.640625 32.457031 75.097656 31.6875 C 75.53125 31.464844 76.730469 31.441406 77.140625 31.652344 C 77.304688 31.746094 77.535156 31.910156 77.675781 32.027344 C 77.910156 32.246094 77.921875 32.246094 78.175781 31.96875 L 78.433594 31.699219 L 78.074219 31.394531 C 77.652344 31.046875 76.707031 30.730469 76.101562 30.742188 C 75.867188 30.742188 75.414062 30.835938 75.074219 30.929688 Z M 75.074219 30.929688 " fill-opacity="1" fill-rule="nonzero" transform="matrix(0.9999999999999999, 0, 0, 0.9999999999999999, -5.684341886080802e-14, -2.842170943040401e-14)"/>
  <path fill="#737373" d="M 121.601562 30.929688 C 120.878906 31.140625 120.144531 31.746094 119.78125 32.410156 C 119.574219 32.796875 119.527344 33.074219 119.527344 33.9375 C 119.527344 35.164062 119.75 35.699219 120.519531 36.363281 C 121.636719 37.320312 123.699219 37.34375 124.679688 36.421875 L 124.949219 36.164062 L 124.703125 35.910156 L 124.460938 35.652344 L 123.945312 36.015625 C 123.503906 36.316406 123.339844 36.375 122.710938 36.375 C 121.90625 36.363281 121.449219 36.1875 120.960938 35.664062 C 119.828125 34.488281 120.167969 32.457031 121.625 31.6875 C 122.058594 31.464844 123.257812 31.441406 123.667969 31.652344 C 123.828125 31.746094 124.0625 31.910156 124.203125 32.027344 C 124.4375 32.246094 124.449219 32.246094 124.703125 31.96875 L 124.960938 31.699219 L 124.597656 31.394531 C 124.179688 31.046875 123.234375 30.730469 122.628906 30.742188 C 122.394531 30.742188 121.941406 30.835938 121.601562 30.929688 Z M 121.601562 30.929688 " fill-opacity="1" fill-rule="nonzero" transform="matrix(0.9999999999999999, 0, 0, 0.9999999999999999, -5.684341886080802e-14, -2.842170943040401e-14)"/>
  <path fill="#737373" d="M 81.453125 33.9375 L 81.453125 37.027344 L 85.886719 37.027344 L 85.886719 36.339844 L 84.113281 36.304688 L 82.328125 36.269531 L 82.328125 34.289062 L 83.878906 34.253906 L 85.417969 34.21875 L 85.417969 33.53125 L 82.257812 33.53125 L 82.292969 32.5625 L 82.328125 31.605469 L 84.054688 31.570312 L 85.769531 31.535156 L 85.769531 30.847656 L 81.453125 30.847656 Z M 81.453125 33.9375 " fill-opacity="1" fill-rule="nonzero" transform="matrix(0.9999999999999999, 0, 0, 0.9999999999999999, -5.684341886080802e-14, -2.842170943040401e-14)"/>
  <path fill="#737373" d="M 89.035156 33.925781 L 89.035156 37.027344 L 89.851562 37.027344 L 89.851562 35.164062 L 90.875 35.164062 L 91.890625 35.175781 L 92.519531 36.09375 C 93.125 36.992188 93.171875 37.027344 93.605469 37.027344 L 94.058594 37.027344 L 93.347656 36.003906 C 92.71875 35.105469 92.660156 34.976562 92.835938 34.871094 C 93.6875 34.359375 93.988281 33.773438 93.90625 32.75 C 93.835938 31.992188 93.582031 31.59375 92.871094 31.199219 C 92.402344 30.941406 92.207031 30.90625 90.699219 30.871094 L 89.035156 30.824219 Z M 92.007812 31.664062 C 92.695312 31.816406 93.113281 32.339844 93.113281 33.015625 C 93.113281 33.472656 93.054688 33.613281 92.730469 33.9375 C 92.296875 34.371094 91.75 34.5 90.609375 34.441406 L 89.90625 34.40625 L 89.875 33.132812 C 89.863281 32.421875 89.875 31.78125 89.898438 31.699219 C 89.964844 31.523438 91.285156 31.488281 92.007812 31.664062 Z M 92.007812 31.664062 " fill-opacity="1" fill-rule="nonzero" transform="matrix(0.9999999999999999, 0, 0, 0.9999999999999999, -5.684341886080802e-14, -2.842170943040401e-14)"/>
  <path fill="#737373" d="M 98.839844 31.339844 C 98.722656 31.617188 98.09375 33.003906 97.453125 34.429688 L 96.285156 37.027344 L 96.71875 37.027344 C 97.148438 37.027344 97.171875 37.015625 97.488281 36.269531 L 97.800781 35.511719 L 101.125 35.511719 L 101.453125 36.269531 C 101.765625 37.015625 101.777344 37.027344 102.210938 37.027344 L 102.652344 37.027344 L 101.71875 34.953125 C 101.207031 33.820312 100.589844 32.445312 100.34375 31.898438 C 99.925781 30.929688 99.902344 30.90625 99.480469 30.871094 C 99.085938 30.835938 99.050781 30.859375 98.839844 31.339844 Z M 100.390625 33.84375 L 100.800781 34.8125 L 98.128906 34.8125 L 98.234375 34.542969 C 98.292969 34.40625 98.539062 33.84375 98.769531 33.296875 C 99.003906 32.75 99.261719 32.175781 99.320312 32.015625 C 99.433594 31.734375 99.445312 31.734375 99.714844 32.304688 C 99.855469 32.621094 100.167969 33.320312 100.390625 33.84375 Z M 100.390625 33.84375 " fill-opacity="1" fill-rule="nonzero" transform="matrix(0.9999999999999999, 0, 0, 0.9999999999999999, -5.684341886080802e-14, -2.842170943040401e-14)"/>
  <path fill="#737373" d="M 105.359375 33.9375 L 105.359375 37.027344 L 106.175781 37.027344 L 106.199219 34.8125 L 106.234375 32.609375 L 107.28125 34.382812 C 108.050781 35.664062 108.402344 36.164062 108.578125 36.1875 C 108.785156 36.222656 109.007812 35.921875 109.917969 34.382812 L 111.015625 32.539062 L 111.050781 34.777344 L 111.074219 37.027344 L 111.890625 37.027344 L 111.890625 30.835938 L 111.527344 30.871094 C 111.175781 30.90625 111.074219 31.046875 109.917969 33.027344 C 109.242188 34.195312 108.660156 35.152344 108.625 35.164062 C 108.589844 35.164062 107.992188 34.183594 107.304688 33.003906 C 106.117188 30.988281 106.011719 30.847656 105.695312 30.847656 L 105.359375 30.847656 Z M 105.359375 33.9375 " fill-opacity="1" fill-rule="nonzero" transform="matrix(0.9999999999999999, 0, 0, 0.9999999999999999, -5.684341886080802e-14, -2.842170943040401e-14)"/>
  <path fill="#737373" d="M 115.503906 33.9375 L 115.503906 37.027344 L 116.320312 37.027344 L 116.320312 30.847656 L 115.503906 30.847656 Z M 115.503906 33.9375 " fill-opacity="1" fill-rule="nonzero" transform="matrix(0.9999999999999999, 0, 0, 0.9999999999999999, -5.684341886080802e-14, -2.842170943040401e-14)"/>
  <path fill="#737373" d="M 129.507812 31.339844 C 129.390625 31.617188 128.761719 33.003906 128.121094 34.429688 L 126.953125 37.027344 L 127.386719 37.027344 C 127.816406 37.027344 127.839844 37.015625 128.15625 36.269531 L 128.46875 35.511719 L 131.792969 35.511719 L 132.121094 36.269531 C 132.433594 37.015625 132.445312 37.027344 132.878906 37.027344 L 133.320312 37.027344 L 132.386719 34.953125 C 131.875 33.820312 131.257812 32.445312 131.011719 31.898438 C 130.59375 30.929688 130.570312 30.90625 130.148438 30.871094 C 129.753906 30.835938 129.71875 30.859375 129.507812 31.339844 Z M 131.058594 33.84375 L 131.46875 34.8125 L 128.796875 34.8125 L 128.902344 34.542969 C 128.960938 34.40625 129.203125 33.84375 129.4375 33.296875 C 129.671875 32.75 129.929688 32.175781 129.984375 32.015625 C 130.101562 31.734375 130.113281 31.734375 130.382812 32.304688 C 130.523438 32.621094 130.835938 33.320312 131.058594 33.84375 Z M 131.058594 33.84375 " fill-opacity="1" fill-rule="nonzero" transform="matrix(0.9999999999999999, 0, 0, 0.9999999999999999, -5.684341886080802e-14, -2.842170943040401e-14)"/>
</svg>