<svg xmlns="http://www.w3.org/2000/svg" xmlns:xlink="http://www.w3.org/1999/xlink" width="257" zoomAndPan="magnify" viewBox="0 0 192.75 60" height="80" preserveAspectRatio="xMidYMid meet" version="1.0"><defs><clipPath id="e5e7da2c0d"><path d="M 0 0.0390625 L 192.5 0.0390625 L 192.5 59.960938 L 0 59.960938 Z M 0 0.0390625 " clip-rule="nonzero"/></clipPath></defs><g clip-path="url(#e5e7da2c0d)"><path fill="#ffffff" d="M 0 0.0390625 L 192.5 0.0390625 L 192.5 59.960938 L 0 59.960938 Z M 0 0.0390625 " fill-opacity="1" fill-rule="nonzero"/><path fill="#ffffff" d="M 0 0.0390625 L 192.5 0.0390625 L 192.5 59.960938 L 0 59.960938 Z M 0 0.0390625 " fill-opacity="1" fill-rule="nonzero"/></g><path fill="#b4b4b4" d="M 129.679688 4.359375 C 129.242188 4.625 128.433594 6.324219 124.128906 16.136719 C 121.351562 22.445312 119.085938 27.617188 119.085938 27.632812 C 119.085938 27.632812 119.847656 27.453125 120.769531 27.214844 C 121.761719 26.945312 123.261719 26.742188 124.527344 26.671875 L 126.640625 26.5625 L 128.324219 22.335938 C 130.019531 18.050781 130.328125 17.566406 130.980469 17.929688 C 131.15625 18.03125 132.171875 20.296875 133.492188 23.582031 L 135.679688 29.054688 L 130.054688 29.164062 C 124.347656 29.292969 122.917969 29.4375 120.804688 30.140625 C 119.414062 30.613281 118.511719 31.210938 117.445312 32.367188 C 116.070312 33.84375 115.417969 35.253906 115.507812 36.5 C 115.691406 38.6875 118.003906 40.0625 120.046875 39.195312 C 120.625 38.960938 121.796875 37.785156 121.796875 37.457031 C 121.796875 37.136719 122.953125 35.980469 123.679688 35.601562 C 124.402344 35.21875 124.617188 35.199219 131.246094 35.144531 L 138.082031 35.089844 L 138.355469 35.78125 C 139.527344 38.585938 140.195312 39.269531 141.929688 39.414062 C 143.972656 39.578125 145.472656 38.277344 145.601562 36.230469 C 145.671875 35.21875 145.546875 34.898438 139.054688 20.117188 C 133.960938 8.457031 132.335938 4.914062 131.917969 4.523438 C 131.265625 3.941406 130.453125 3.867188 129.679688 4.359375 Z M 129.679688 4.359375 " fill-opacity="1" fill-rule="nonzero"/><path fill="#b4b4b4" d="M 26.207031 4.46875 C 19.429688 5.90625 14.101562 10.988281 12.253906 17.765625 C 11.910156 19.066406 11.835938 19.734375 11.855469 22.191406 C 11.855469 24.632812 11.910156 25.316406 12.273438 26.617188 C 14.121094 33.503906 19.792969 38.6875 26.785156 39.917969 C 29.824219 40.441406 33.867188 40.007812 36.394531 38.851562 L 37.324219 38.421875 L 35.601562 38.203125 C 30.398438 37.53125 26.246094 35.582031 23.078125 32.332031 C 22.59375 31.824219 21.546875 30.449219 20.765625 29.273438 C 18.945312 26.527344 18.398438 24.976562 18.382812 22.375 C 18.363281 20.152344 18.597656 19.050781 19.609375 16.949219 C 20.964844 14.152344 23.496094 11.859375 26.355469 10.859375 C 27.382812 10.519531 27.902344 10.449219 29.824219 10.449219 C 31.84375 10.464844 32.207031 10.519531 33.328125 10.949219 C 36.707031 12.289062 39.199219 14.890625 40.445312 18.339844 C 41.058594 20.0625 41.203125 23.003906 40.773438 24.847656 C 39.742188 29.257812 36.09375 32.886719 31.753906 33.828125 L 30.308594 34.136719 L 31.773438 34.625 C 33.957031 35.347656 36.289062 35.691406 39.109375 35.726562 L 41.601562 35.746094 L 42.757812 34.5 C 44.871094 32.222656 46.316406 29.621094 47.136719 26.636719 C 47.527344 25.140625 47.582031 24.523438 47.601562 22.191406 C 47.601562 20.261719 47.511719 19.140625 47.292969 18.269531 C 45.953125 12.886719 42.503906 8.492188 37.734375 6.089844 C 35.039062 4.734375 33.4375 4.359375 30.179688 4.285156 C 28.285156 4.25 27 4.304688 26.207031 4.46875 Z M 26.207031 4.46875 " fill-opacity="1" fill-rule="nonzero"/><path fill="#b4b4b4" d="M 67.515625 4.414062 C 60.214844 5.476562 54.328125 10.839844 52.480469 18.125 C 52.015625 19.988281 52.015625 24.539062 52.480469 26.257812 C 53.492188 30.019531 55.15625 32.851562 57.777344 35.292969 C 62.546875 39.757812 69.195312 41.253906 75.210938 39.269531 C 77.273438 38.585938 79.207031 37.585938 79.679688 36.992188 C 80.199219 36.320312 80.488281 35.273438 80.34375 34.480469 C 80.089844 33.125 78.085938 31.660156 76.859375 31.929688 C 76.585938 32.003906 75.703125 32.367188 74.910156 32.761719 C 72.863281 33.777344 71.476562 34.097656 69.484375 33.988281 C 65.367188 33.757812 61.753906 31.285156 59.90625 27.433594 C 58.898438 25.332031 58.660156 24.230469 58.679688 22.011719 C 58.695312 18.832031 59.890625 16.066406 62.257812 13.699219 C 64.839844 11.097656 68.527344 9.886719 71.777344 10.558594 C 72.304688 10.660156 73.496094 11.113281 74.417969 11.550781 C 76.421875 12.46875 77.09375 12.632812 77.976562 12.34375 C 79.949219 11.695312 80.835938 9.523438 79.824219 7.734375 C 79.332031 6.851562 77.703125 5.925781 75.265625 5.132812 C 72.632812 4.285156 70.066406 4.03125 67.515625 4.414062 Z M 67.515625 4.414062 " fill-opacity="1" fill-rule="nonzero"/><path fill="#131347" d="M 151.671875 4.558594 C 150.480469 5.316406 150.535156 4.394531 150.535156 21.453125 C 150.535156 31.929688 150.589844 37.066406 150.726562 37.410156 C 150.980469 38.09375 151.761719 38.90625 152.464844 39.195312 C 154.128906 39.917969 156.222656 39.050781 156.835938 37.410156 C 156.960938 37.066406 157.035156 33.652344 157.035156 27.324219 C 157.035156 22.066406 157.089844 17.765625 157.179688 17.785156 C 157.253906 17.785156 161.625 22.664062 166.882812 28.644531 C 172.164062 34.605469 176.714844 39.648438 177.003906 39.832031 C 178.105469 40.515625 179.808594 40.0625 180.347656 38.960938 C 180.472656 38.667969 180.617188 37.675781 180.671875 36.738281 L 180.746094 35.019531 L 176.441406 29.964844 C 171.582031 24.230469 154.742188 4.96875 154.257812 4.589844 C 153.730469 4.160156 152.335938 4.140625 151.671875 4.558594 Z M 151.671875 4.558594 " fill-opacity="1" fill-rule="nonzero"/><path fill="#b4b4b4" d="M 92.921875 4.953125 C 89.882812 5.351562 87.789062 6.742188 86.632812 9.148438 C 85.621094 11.257812 85.566406 11.980469 85.566406 22.28125 C 85.566406 30.375 85.621094 31.769531 85.878906 32.90625 C 86.617188 36.109375 88.007812 37.804688 90.8125 38.921875 C 91.894531 39.359375 91.894531 39.359375 100.714844 39.414062 C 109.453125 39.46875 109.527344 39.46875 110.21875 39.070312 C 111.230469 38.511719 111.730469 37.496094 111.644531 36.265625 C 111.554688 35.144531 111.136719 34.480469 110.21875 33.933594 C 109.636719 33.597656 109.1875 33.578125 102.101562 33.488281 C 93.789062 33.378906 94.007812 33.414062 93.25 32.1875 C 92.597656 31.101562 92.488281 29.566406 92.578125 21.453125 C 92.652344 13.355469 92.6875 12.871094 93.460938 11.890625 C 94.277344 10.839844 94.480469 10.824219 102.554688 10.714844 C 109.855469 10.628906 109.964844 10.628906 110.519531 10.230469 C 112.203125 9.039062 112.003906 6.164062 110.179688 5.152344 C 109.65625 4.878906 108.84375 4.84375 101.832031 4.824219 C 97.566406 4.804688 93.554688 4.859375 92.921875 4.953125 Z M 92.921875 4.953125 " fill-opacity="1" fill-rule="nonzero"/><path fill="#131347" d="M 175.921875 5.1875 C 175.214844 5.515625 174.65625 6.125 174.292969 6.960938 C 174.058594 7.535156 174.019531 8.800781 174.019531 15.398438 L 174.019531 23.148438 L 177.242188 26.945312 C 178.992188 29.039062 180.511719 30.757812 180.582031 30.757812 C 180.65625 30.777344 180.691406 25.515625 180.671875 19.066406 C 180.617188 8.027344 180.601562 7.335938 180.273438 6.6875 C 179.734375 5.585938 178.882812 5.042969 177.5625 4.988281 C 176.894531 4.953125 176.242188 5.023438 175.921875 5.1875 Z M 175.921875 5.1875 " fill-opacity="1" fill-rule="nonzero"/><path fill="#b4b4b4" d="M 97.347656 19.460938 C 95.796875 20.042969 95.035156 21.507812 95.453125 23.128906 C 95.691406 24.050781 96.738281 25.101562 97.621094 25.265625 C 97.949219 25.316406 100.835938 25.351562 104.039062 25.316406 C 109.601562 25.265625 109.871094 25.25 110.363281 24.886719 C 111.246094 24.230469 111.675781 23.402344 111.675781 22.429688 C 111.675781 21.234375 111.246094 20.371094 110.363281 19.789062 L 109.636719 19.296875 L 103.835938 19.261719 C 99.25 19.226562 97.894531 19.261719 97.347656 19.460938 Z M 97.347656 19.460938 " fill-opacity="1" fill-rule="nonzero"/><path fill="#b4b4b4" d="M 91.132812 47.707031 C 90.011719 48.035156 88.875 48.972656 88.316406 50 C 87.988281 50.601562 87.917969 51.03125 87.917969 52.367188 C 87.917969 54.269531 88.261719 55.097656 89.453125 56.128906 C 91.1875 57.609375 94.386719 57.644531 95.902344 56.21875 L 96.320312 55.816406 L 95.9375 55.425781 L 95.5625 55.023438 L 94.761719 55.589844 C 94.078125 56.054688 93.824219 56.144531 92.851562 56.144531 C 91.605469 56.128906 90.902344 55.855469 90.136719 55.042969 C 88.390625 53.222656 88.910156 50.074219 91.167969 48.882812 C 91.839844 48.535156 93.699219 48.5 94.332031 48.828125 C 94.589844 48.972656 94.945312 49.226562 95.164062 49.40625 C 95.527344 49.746094 95.542969 49.746094 95.9375 49.316406 L 96.335938 48.898438 L 95.78125 48.425781 C 95.125 47.886719 93.660156 47.398438 92.722656 47.417969 C 92.359375 47.417969 91.65625 47.5625 91.132812 47.707031 Z M 91.132812 47.707031 " fill-opacity="1" fill-rule="nonzero"/><path fill="#b4b4b4" d="M 163.234375 47.707031 C 162.113281 48.035156 160.976562 48.972656 160.414062 50 C 160.09375 50.601562 160.019531 51.03125 160.019531 52.367188 C 160.019531 54.269531 160.363281 55.097656 161.558594 56.128906 C 163.289062 57.609375 166.484375 57.644531 168.003906 56.21875 L 168.421875 55.816406 L 168.039062 55.425781 L 167.664062 55.023438 L 166.867188 55.589844 C 166.179688 56.054688 165.925781 56.144531 164.953125 56.144531 C 163.707031 56.128906 162.996094 55.855469 162.242188 55.042969 C 160.484375 53.222656 161.011719 50.074219 163.269531 48.882812 C 163.941406 48.535156 165.800781 48.5 166.4375 48.828125 C 166.683594 48.972656 167.046875 49.226562 167.265625 49.40625 C 167.628906 49.746094 167.648438 49.746094 168.039062 49.316406 L 168.441406 48.898438 L 167.875 48.425781 C 167.230469 47.886719 165.765625 47.398438 164.824219 47.417969 C 164.460938 47.417969 163.761719 47.5625 163.234375 47.707031 Z M 163.234375 47.707031 " fill-opacity="1" fill-rule="nonzero"/><path fill="#b4b4b4" d="M 101.015625 52.367188 L 101.015625 57.15625 L 107.886719 57.15625 L 107.886719 56.089844 L 105.140625 56.035156 L 102.371094 55.980469 L 102.371094 52.914062 L 104.777344 52.859375 L 107.160156 52.804688 L 107.160156 51.738281 L 102.261719 51.738281 L 102.316406 50.238281 L 102.371094 48.753906 L 105.046875 48.699219 L 107.707031 48.644531 L 107.707031 47.578125 L 101.015625 47.578125 Z M 101.015625 52.367188 " fill-opacity="1" fill-rule="nonzero"/><path fill="#b4b4b4" d="M 112.765625 52.351562 L 112.765625 57.15625 L 114.03125 57.15625 L 114.03125 54.269531 L 115.617188 54.269531 L 117.191406 54.285156 L 118.164062 55.710938 C 119.105469 57.101562 119.175781 57.15625 119.847656 57.15625 L 120.550781 57.15625 L 119.449219 55.570312 C 118.476562 54.179688 118.382812 53.976562 118.65625 53.816406 C 119.976562 53.023438 120.441406 52.113281 120.316406 50.527344 C 120.207031 49.351562 119.8125 48.734375 118.710938 48.125 C 117.984375 47.726562 117.683594 47.671875 115.34375 47.617188 L 112.765625 47.542969 Z M 117.371094 48.84375 C 118.4375 49.082031 119.085938 49.890625 119.085938 50.9375 C 119.085938 51.648438 118.996094 51.867188 118.492188 52.367188 C 117.820312 53.039062 116.972656 53.238281 115.207031 53.148438 L 114.117188 53.09375 L 114.066406 51.121094 C 114.050781 50.019531 114.066406 49.027344 114.105469 48.898438 C 114.207031 48.625 116.253906 48.574219 117.371094 48.84375 Z M 117.371094 48.84375 " fill-opacity="1" fill-rule="nonzero"/><path fill="#b4b4b4" d="M 127.960938 48.34375 C 127.777344 48.773438 126.804688 50.921875 125.8125 53.128906 L 124 57.15625 L 124.671875 57.15625 C 125.339844 57.15625 125.375 57.136719 125.867188 55.980469 L 126.351562 54.808594 L 131.5 54.808594 L 132.011719 55.980469 C 132.496094 57.136719 132.511719 57.15625 133.183594 57.15625 L 133.867188 57.15625 L 132.421875 53.941406 C 131.628906 52.1875 130.671875 50.054688 130.289062 49.207031 C 129.644531 47.707031 129.605469 47.671875 128.953125 47.617188 C 128.339844 47.5625 128.289062 47.597656 127.960938 48.34375 Z M 130.363281 52.222656 L 131 53.722656 L 126.859375 53.722656 L 127.023438 53.304688 C 127.113281 53.09375 127.496094 52.222656 127.851562 51.375 C 128.214844 50.527344 128.613281 49.636719 128.703125 49.390625 C 128.878906 48.953125 128.898438 48.953125 129.316406 49.835938 C 129.535156 50.328125 130.019531 51.410156 130.363281 52.222656 Z M 130.363281 52.222656 " fill-opacity="1" fill-rule="nonzero"/><path fill="#b4b4b4" d="M 138.0625 52.367188 L 138.0625 57.15625 L 139.328125 57.15625 L 139.363281 53.722656 L 139.417969 50.308594 L 141.042969 53.058594 C 142.234375 55.042969 142.777344 55.816406 143.050781 55.855469 C 143.371094 55.910156 143.71875 55.441406 145.128906 53.058594 L 146.828125 50.199219 L 146.882812 53.667969 L 146.917969 57.15625 L 148.183594 57.15625 L 148.183594 47.5625 L 147.621094 47.617188 C 147.078125 47.671875 146.917969 47.886719 145.128906 50.957031 C 144.082031 52.765625 143.179688 54.25 143.125 54.269531 C 143.070312 54.269531 142.144531 52.75 141.078125 50.921875 C 139.238281 47.796875 139.074219 47.578125 138.585938 47.578125 L 138.0625 47.578125 Z M 138.0625 52.367188 " fill-opacity="1" fill-rule="nonzero"/><path fill="#b4b4b4" d="M 153.785156 52.367188 L 153.785156 57.15625 L 155.050781 57.15625 L 155.050781 47.578125 L 153.785156 47.578125 Z M 153.785156 52.367188 " fill-opacity="1" fill-rule="nonzero"/><path fill="#b4b4b4" d="M 175.484375 48.34375 C 175.304688 48.773438 174.328125 50.921875 173.335938 53.128906 L 171.527344 57.15625 L 172.199219 57.15625 C 172.863281 57.15625 172.902344 57.136719 173.390625 55.980469 L 173.875 54.808594 L 179.027344 54.808594 L 179.535156 55.980469 C 180.019531 57.136719 180.039062 57.15625 180.710938 57.15625 L 181.394531 57.15625 L 179.945312 53.941406 C 179.152344 52.1875 178.199219 50.054688 177.816406 49.207031 C 177.167969 47.707031 177.132812 47.671875 176.476562 47.617188 C 175.867188 47.5625 175.8125 47.597656 175.484375 48.34375 Z M 177.890625 52.222656 L 178.523438 53.722656 L 174.382812 53.722656 L 174.546875 53.304688 C 174.636719 53.09375 175.011719 52.222656 175.375 51.375 C 175.738281 50.527344 176.140625 49.636719 176.222656 49.390625 C 176.40625 48.953125 176.425781 48.953125 176.839844 49.835938 C 177.058594 50.328125 177.542969 51.410156 177.890625 52.222656 Z M 177.890625 52.222656 " fill-opacity="1" fill-rule="nonzero"/></svg>