<svg xmlns="http://www.w3.org/2000/svg" xmlns:xlink="http://www.w3.org/1999/xlink" width="257" zoomAndPan="magnify" viewBox="0 0 192.75 60" height="80" preserveAspectRatio="xMidYMid meet" version="1.0"><defs><clipPath id="18c99ef1e0"><path d="M 0 0.0390625 L 192.5 0.0390625 L 192.5 59.960938 L 0 59.960938 Z M 0 0.0390625 " clip-rule="nonzero"/></clipPath></defs><g clip-path="url(#18c99ef1e0)"><path fill="#ffffff" d="M 0 0.0390625 L 192.5 0.0390625 L 192.5 59.960938 L 0 59.960938 Z M 0 0.0390625 " fill-opacity="1" fill-rule="nonzero"/><path fill="#ffffff" d="M 0 0.0390625 L 192.5 0.0390625 L 192.5 59.960938 L 0 59.960938 Z M 0 0.0390625 " fill-opacity="1" fill-rule="nonzero"/></g><path fill="#b4b4b4" d="M 128.535156 5.242188 C 128.113281 5.5 127.332031 7.140625 123.171875 16.617188 C 120.492188 22.710938 118.304688 27.703125 118.304688 27.71875 C 118.304688 27.71875 119.039062 27.542969 119.929688 27.316406 C 120.886719 27.054688 122.335938 26.859375 123.558594 26.789062 L 125.601562 26.683594 L 127.226562 22.605469 C 128.863281 18.464844 129.160156 17.996094 129.792969 18.347656 C 129.960938 18.449219 130.941406 20.632812 132.21875 23.808594 L 134.328125 29.09375 L 128.898438 29.199219 C 123.382812 29.320312 122.003906 29.460938 119.964844 30.140625 C 118.621094 30.59375 117.75 31.175781 116.71875 32.289062 C 115.394531 33.71875 114.761719 35.078125 114.847656 36.285156 C 115.023438 38.394531 117.257812 39.722656 119.234375 38.886719 C 119.789062 38.65625 120.921875 37.523438 120.921875 37.207031 C 120.921875 36.898438 122.039062 35.78125 122.742188 35.414062 C 123.4375 35.042969 123.648438 35.027344 130.046875 34.972656 L 136.648438 34.921875 L 136.910156 35.589844 C 138.046875 38.292969 138.6875 38.957031 140.367188 39.09375 C 142.335938 39.253906 143.785156 37.996094 143.910156 36.019531 C 143.980469 35.042969 143.855469 34.734375 137.589844 20.457031 C 132.667969 9.199219 131.101562 5.78125 130.699219 5.398438 C 130.066406 4.839844 129.28125 4.769531 128.535156 5.242188 Z M 128.535156 5.242188 " fill-opacity="1" fill-rule="nonzero"/><path fill="#131347" d="M 28.609375 5.347656 C 22.0625 6.738281 16.917969 11.644531 15.132812 18.191406 C 14.800781 19.449219 14.730469 20.089844 14.75 22.464844 C 14.75 24.820312 14.800781 25.480469 15.152344 26.738281 C 16.933594 33.390625 22.414062 38.394531 29.164062 39.582031 C 32.101562 40.089844 36.003906 39.667969 38.449219 38.550781 L 39.34375 38.136719 L 37.683594 37.925781 C 32.65625 37.277344 28.644531 35.394531 25.585938 32.253906 C 25.121094 31.765625 24.109375 30.4375 23.355469 29.304688 C 21.59375 26.648438 21.066406 25.152344 21.050781 22.640625 C 21.035156 20.492188 21.261719 19.429688 22.238281 17.402344 C 23.546875 14.699219 25.992188 12.484375 28.75 11.519531 C 29.742188 11.191406 30.246094 11.121094 32.101562 11.121094 C 34.050781 11.140625 34.402344 11.191406 35.484375 11.609375 C 38.746094 12.898438 41.15625 15.414062 42.359375 18.746094 C 42.949219 20.40625 43.089844 23.246094 42.675781 25.03125 C 41.679688 29.285156 38.15625 32.792969 33.964844 33.699219 L 32.566406 33.996094 L 33.980469 34.472656 C 36.09375 35.167969 38.34375 35.5 41.066406 35.535156 L 43.476562 35.554688 L 44.59375 34.347656 C 46.632812 32.152344 48.03125 29.636719 48.820312 26.753906 C 49.199219 25.3125 49.25 24.714844 49.269531 22.464844 C 49.269531 20.597656 49.179688 19.515625 48.972656 18.675781 C 47.679688 13.480469 44.347656 9.234375 39.742188 6.914062 C 37.140625 5.605469 35.589844 5.242188 32.445312 5.171875 C 30.613281 5.136719 29.375 5.1875 28.609375 5.347656 Z M 28.609375 5.347656 " fill-opacity="1" fill-rule="nonzero"/><path fill="#b4b4b4" d="M 68.503906 5.292969 C 61.453125 6.324219 55.765625 11.503906 53.980469 18.535156 C 53.53125 20.335938 53.53125 24.730469 53.980469 26.390625 C 54.957031 30.023438 56.566406 32.757812 59.097656 35.113281 C 63.703125 39.429688 70.121094 40.871094 75.933594 38.957031 C 77.925781 38.292969 79.789062 37.332031 80.246094 36.757812 C 80.75 36.109375 81.03125 35.097656 80.890625 34.332031 C 80.644531 33.023438 78.710938 31.605469 77.523438 31.871094 C 77.257812 31.941406 76.40625 32.289062 75.640625 32.671875 C 73.664062 33.652344 72.324219 33.960938 70.402344 33.859375 C 66.425781 33.636719 62.9375 31.246094 61.152344 27.527344 C 60.179688 25.496094 59.949219 24.433594 59.96875 22.289062 C 59.984375 19.21875 61.136719 16.546875 63.421875 14.261719 C 65.917969 11.75 69.480469 10.578125 72.617188 11.226562 C 73.125 11.328125 74.277344 11.765625 75.167969 12.1875 C 77.101562 13.074219 77.75 13.234375 78.605469 12.953125 C 80.511719 12.328125 81.363281 10.226562 80.386719 8.503906 C 79.914062 7.648438 78.339844 6.753906 75.984375 5.988281 C 73.441406 5.171875 70.964844 4.925781 68.503906 5.292969 Z M 68.503906 5.292969 " fill-opacity="1" fill-rule="nonzero"/><path fill="#b4b4b4" d="M 149.773438 5.433594 C 148.621094 6.164062 148.671875 5.277344 148.671875 21.75 C 148.671875 31.871094 148.726562 36.828125 148.859375 37.160156 C 149.105469 37.820312 149.859375 38.605469 150.539062 38.886719 C 152.144531 39.582031 154.167969 38.746094 154.757812 37.160156 C 154.882812 36.828125 154.953125 33.53125 154.953125 27.421875 C 154.953125 22.339844 155.003906 18.191406 155.09375 18.207031 C 155.164062 18.207031 159.382812 22.917969 164.464844 28.695312 C 169.5625 34.453125 173.957031 39.324219 174.238281 39.5 C 175.300781 40.160156 176.945312 39.722656 177.464844 38.65625 C 177.585938 38.375 177.726562 37.417969 177.78125 36.511719 L 177.851562 34.851562 L 173.695312 29.96875 C 169 24.433594 152.738281 5.832031 152.269531 5.464844 C 151.761719 5.046875 150.414062 5.03125 149.773438 5.433594 Z M 149.773438 5.433594 " fill-opacity="1" fill-rule="nonzero"/><path fill="#b4b4b4" d="M 93.039062 5.816406 C 90.101562 6.199219 88.082031 7.546875 86.964844 9.867188 C 85.988281 11.90625 85.933594 12.601562 85.933594 22.550781 C 85.933594 30.367188 85.988281 31.710938 86.234375 32.8125 C 86.945312 35.902344 88.289062 37.539062 90.996094 38.621094 C 92.042969 39.042969 92.042969 39.042969 100.5625 39.09375 C 109.003906 39.148438 109.074219 39.148438 109.738281 38.761719 C 110.714844 38.222656 111.203125 37.242188 111.121094 36.054688 C 111.03125 34.972656 110.628906 34.332031 109.738281 33.804688 C 109.179688 33.476562 108.746094 33.460938 101.898438 33.371094 C 93.875 33.265625 94.085938 33.300781 93.355469 32.117188 C 92.722656 31.070312 92.617188 29.585938 92.703125 21.75 C 92.773438 13.929688 92.808594 13.460938 93.558594 12.515625 C 94.347656 11.503906 94.539062 11.484375 102.339844 11.378906 C 109.390625 11.296875 109.496094 11.296875 110.03125 10.914062 C 111.65625 9.761719 111.464844 6.984375 109.703125 6.007812 C 109.195312 5.746094 108.414062 5.710938 101.644531 5.691406 C 97.523438 5.675781 93.644531 5.726562 93.039062 5.816406 Z M 93.039062 5.816406 " fill-opacity="1" fill-rule="nonzero"/><path fill="#b4b4b4" d="M 173.191406 6.042969 C 172.507812 6.359375 171.96875 6.949219 171.617188 7.753906 C 171.390625 8.3125 171.355469 9.53125 171.355469 15.90625 L 171.355469 23.386719 L 174.464844 27.054688 C 176.15625 29.074219 177.621094 30.734375 177.691406 30.734375 C 177.761719 30.753906 177.796875 25.671875 177.78125 19.449219 C 177.726562 8.785156 177.710938 8.117188 177.394531 7.492188 C 176.875 6.429688 176.050781 5.902344 174.777344 5.851562 C 174.132812 5.816406 173.5 5.882812 173.191406 6.042969 Z M 173.191406 6.042969 " fill-opacity="1" fill-rule="nonzero"/><path fill="#b4b4b4" d="M 97.3125 19.828125 C 95.816406 20.386719 95.078125 21.804688 95.480469 23.371094 C 95.710938 24.257812 96.722656 25.277344 97.574219 25.433594 C 97.890625 25.480469 100.679688 25.515625 103.769531 25.480469 C 109.144531 25.433594 109.40625 25.417969 109.878906 25.066406 C 110.734375 24.433594 111.148438 23.632812 111.148438 22.691406 C 111.148438 21.539062 110.734375 20.703125 109.878906 20.144531 L 109.179688 19.667969 L 103.578125 19.632812 C 99.148438 19.597656 97.835938 19.632812 97.3125 19.828125 Z M 97.3125 19.828125 " fill-opacity="1" fill-rule="nonzero"/><path fill="#b4b4b4" d="M 91.308594 47.105469 C 90.226562 47.421875 89.125 48.328125 88.589844 49.320312 C 88.273438 49.898438 88.203125 50.3125 88.203125 51.605469 C 88.203125 53.441406 88.535156 54.242188 89.6875 55.234375 C 91.359375 56.667969 94.453125 56.703125 95.914062 55.324219 L 96.316406 54.9375 L 95.949219 54.558594 L 95.585938 54.171875 L 94.816406 54.714844 C 94.15625 55.167969 93.910156 55.253906 92.96875 55.253906 C 91.761719 55.234375 91.085938 54.972656 90.347656 54.191406 C 88.660156 52.429688 89.160156 49.390625 91.34375 48.238281 C 91.992188 47.90625 93.785156 47.871094 94.398438 48.1875 C 94.644531 48.328125 94.992188 48.570312 95.199219 48.746094 C 95.550781 49.074219 95.570312 49.074219 95.949219 48.660156 L 96.335938 48.257812 L 95.796875 47.800781 C 95.164062 47.28125 93.75 46.804688 92.84375 46.824219 C 92.496094 46.824219 91.816406 46.964844 91.308594 47.105469 Z M 91.308594 47.105469 " fill-opacity="1" fill-rule="nonzero"/><path fill="#b4b4b4" d="M 160.9375 47.105469 C 159.855469 47.421875 158.757812 48.328125 158.214844 49.320312 C 157.90625 49.898438 157.835938 50.3125 157.835938 51.605469 C 157.835938 53.441406 158.167969 54.242188 159.320312 55.234375 C 160.992188 56.667969 164.078125 56.703125 165.546875 55.324219 L 165.949219 54.9375 L 165.582031 54.558594 L 165.21875 54.171875 L 164.445312 54.714844 C 163.785156 55.167969 163.539062 55.253906 162.597656 55.253906 C 161.394531 55.234375 160.710938 54.972656 159.980469 54.191406 C 158.285156 52.429688 158.792969 49.390625 160.972656 48.238281 C 161.621094 47.90625 163.417969 47.871094 164.03125 48.1875 C 164.269531 48.328125 164.621094 48.570312 164.832031 48.746094 C 165.183594 49.074219 165.199219 49.074219 165.582031 48.660156 L 165.964844 48.257812 L 165.421875 47.800781 C 164.796875 47.28125 163.382812 46.804688 162.476562 46.824219 C 162.125 46.824219 161.445312 46.964844 160.9375 47.105469 Z M 160.9375 47.105469 " fill-opacity="1" fill-rule="nonzero"/><path fill="#b4b4b4" d="M 100.855469 51.605469 L 100.855469 56.230469 L 107.488281 56.230469 L 107.488281 55.203125 L 104.835938 55.148438 L 102.164062 55.097656 L 102.164062 52.132812 L 104.484375 52.078125 L 106.789062 52.027344 L 106.789062 50.996094 L 102.058594 50.996094 L 102.109375 49.546875 L 102.164062 48.117188 L 104.746094 48.0625 L 107.3125 48.011719 L 107.3125 46.980469 L 100.855469 46.980469 Z M 100.855469 51.605469 " fill-opacity="1" fill-rule="nonzero"/><path fill="#b4b4b4" d="M 112.199219 51.589844 L 112.199219 56.230469 L 113.421875 56.230469 L 113.421875 53.441406 L 114.953125 53.441406 L 116.472656 53.460938 L 117.414062 54.832031 C 118.320312 56.175781 118.390625 56.230469 119.039062 56.230469 L 119.71875 56.230469 L 118.65625 54.699219 C 117.714844 53.355469 117.625 53.160156 117.890625 53.003906 C 119.164062 52.238281 119.613281 51.359375 119.492188 49.828125 C 119.386719 48.695312 119.003906 48.097656 117.941406 47.507812 C 117.238281 47.121094 116.949219 47.070312 114.691406 47.015625 L 112.199219 46.945312 Z M 116.648438 48.203125 C 117.679688 48.429688 118.304688 49.214844 118.304688 50.226562 C 118.304688 50.910156 118.214844 51.121094 117.730469 51.605469 C 117.082031 52.253906 116.265625 52.449219 114.558594 52.359375 L 113.503906 52.308594 L 113.457031 50.402344 C 113.441406 49.335938 113.457031 48.378906 113.492188 48.257812 C 113.59375 47.992188 115.566406 47.941406 116.648438 48.203125 Z M 116.648438 48.203125 " fill-opacity="1" fill-rule="nonzero"/><path fill="#b4b4b4" d="M 126.875 47.71875 C 126.699219 48.132812 125.757812 50.207031 124.800781 52.34375 L 123.050781 56.230469 L 123.699219 56.230469 C 124.34375 56.230469 124.378906 56.210938 124.851562 55.097656 L 125.320312 53.960938 L 130.292969 53.960938 L 130.785156 55.097656 C 131.253906 56.210938 131.269531 56.230469 131.917969 56.230469 L 132.578125 56.230469 L 131.183594 53.125 C 130.417969 51.429688 129.492188 49.371094 129.125 48.554688 C 128.5 47.105469 128.464844 47.070312 127.832031 47.015625 C 127.242188 46.964844 127.191406 47 126.875 47.71875 Z M 129.195312 51.464844 L 129.808594 52.914062 L 125.808594 52.914062 L 125.96875 52.511719 C 126.054688 52.308594 126.425781 51.464844 126.769531 50.648438 C 127.121094 49.828125 127.503906 48.96875 127.59375 48.730469 C 127.761719 48.308594 127.78125 48.308594 128.183594 49.164062 C 128.394531 49.636719 128.863281 50.683594 129.195312 51.464844 Z M 129.195312 51.464844 " fill-opacity="1" fill-rule="nonzero"/><path fill="#b4b4b4" d="M 136.632812 51.605469 L 136.632812 56.230469 L 137.851562 56.230469 L 137.886719 52.914062 L 137.941406 49.617188 L 139.507812 52.273438 C 140.660156 54.191406 141.183594 54.9375 141.449219 54.972656 C 141.757812 55.027344 142.089844 54.574219 143.453125 52.273438 L 145.097656 49.511719 L 145.148438 52.863281 L 145.183594 56.230469 L 146.40625 56.230469 L 146.40625 46.964844 L 145.863281 47.015625 C 145.335938 47.070312 145.183594 47.28125 143.453125 50.242188 C 142.441406 51.992188 141.570312 53.425781 141.519531 53.441406 C 141.464844 53.441406 140.570312 51.972656 139.542969 50.207031 C 137.765625 47.191406 137.605469 46.980469 137.132812 46.980469 L 136.632812 46.980469 Z M 136.632812 51.605469 " fill-opacity="1" fill-rule="nonzero"/><path fill="#b4b4b4" d="M 151.8125 51.605469 L 151.8125 56.230469 L 153.035156 56.230469 L 153.035156 46.980469 L 151.8125 46.980469 Z M 151.8125 51.605469 " fill-opacity="1" fill-rule="nonzero"/><path fill="#b4b4b4" d="M 172.769531 47.71875 C 172.59375 48.132812 171.652344 50.207031 170.695312 52.34375 L 168.949219 56.230469 L 169.597656 56.230469 C 170.238281 56.230469 170.273438 56.210938 170.75 55.097656 L 171.214844 53.960938 L 176.191406 53.960938 L 176.683594 55.097656 C 177.148438 56.210938 177.167969 56.230469 177.816406 56.230469 L 178.476562 56.230469 L 177.078125 53.125 C 176.3125 51.429688 175.390625 49.371094 175.019531 48.554688 C 174.394531 47.105469 174.359375 47.070312 173.730469 47.015625 C 173.140625 46.964844 173.085938 47 172.769531 47.71875 Z M 175.089844 51.464844 L 175.707031 52.914062 L 171.707031 52.914062 L 171.863281 52.511719 C 171.953125 52.308594 172.316406 51.464844 172.664062 50.648438 C 173.015625 49.828125 173.402344 48.96875 173.484375 48.730469 C 173.660156 48.308594 173.675781 48.308594 174.082031 49.164062 C 174.289062 49.636719 174.757812 50.683594 175.089844 51.464844 Z M 175.089844 51.464844 " fill-opacity="1" fill-rule="nonzero"/></svg>