<svg xmlns="http://www.w3.org/2000/svg" xmlns:xlink="http://www.w3.org/1999/xlink" width="209" zoomAndPan="magnify" viewBox="0 0 156.75 38.999999" height="52" preserveAspectRatio="xMidYMid meet" version="1.0"><path fill="#131347" d="M 99.949219 2.605469 C 99.667969 2.78125 99.144531 3.878906 96.367188 10.210938 C 94.574219 14.277344 93.113281 17.613281 93.113281 17.625 C 93.113281 17.625 93.605469 17.507812 94.199219 17.355469 C 94.839844 17.183594 95.808594 17.054688 96.625 17.007812 L 97.988281 16.9375 L 99.074219 14.207031 C 100.167969 11.445312 100.367188 11.128906 100.789062 11.363281 C 100.902344 11.433594 101.558594 12.890625 102.410156 15.011719 L 103.820312 18.546875 L 100.191406 18.617188 C 96.507812 18.699219 95.585938 18.792969 94.222656 19.246094 C 93.324219 19.550781 92.742188 19.933594 92.054688 20.679688 C 91.167969 21.636719 90.746094 22.546875 90.804688 23.351562 C 90.921875 24.761719 92.414062 25.648438 93.734375 25.089844 C 94.105469 24.9375 94.863281 24.179688 94.863281 23.96875 C 94.863281 23.757812 95.609375 23.011719 96.078125 22.769531 C 96.542969 22.523438 96.683594 22.511719 100.960938 22.476562 L 105.371094 22.441406 L 105.546875 22.882812 C 106.304688 24.691406 106.734375 25.136719 107.855469 25.226562 C 109.171875 25.332031 110.140625 24.492188 110.222656 23.175781 C 110.269531 22.523438 110.1875 22.3125 106 12.773438 C 102.710938 5.253906 101.664062 2.96875 101.394531 2.710938 C 100.972656 2.339844 100.449219 2.292969 99.949219 2.605469 Z M 99.949219 2.605469 " fill-opacity="1" fill-rule="nonzero"/><path fill="#131347" d="M 33.179688 2.675781 C 28.804688 3.609375 25.367188 6.886719 24.175781 11.257812 C 23.953125 12.097656 23.90625 12.53125 23.917969 14.117188 C 23.917969 15.691406 23.953125 16.132812 24.1875 16.972656 C 25.378906 21.414062 29.039062 24.761719 33.550781 25.554688 C 35.511719 25.894531 38.121094 25.613281 39.753906 24.867188 L 40.351562 24.585938 L 39.242188 24.445312 C 35.882812 24.015625 33.203125 22.757812 31.160156 20.65625 C 30.847656 20.332031 30.171875 19.445312 29.667969 18.6875 C 28.492188 16.914062 28.140625 15.910156 28.128906 14.230469 C 28.117188 12.796875 28.269531 12.085938 28.921875 10.734375 C 29.796875 8.925781 31.429688 7.445312 33.273438 6.804688 C 33.9375 6.582031 34.273438 6.535156 35.511719 6.535156 C 36.816406 6.546875 37.050781 6.582031 37.773438 6.863281 C 39.953125 7.726562 41.5625 9.40625 42.367188 11.632812 C 42.761719 12.738281 42.855469 14.640625 42.578125 15.828125 C 41.914062 18.675781 39.558594 21.019531 36.757812 21.625 L 35.824219 21.824219 L 36.769531 22.136719 C 38.179688 22.605469 39.683594 22.828125 41.503906 22.847656 L 43.113281 22.859375 L 43.859375 22.054688 C 45.222656 20.585938 46.15625 18.90625 46.683594 16.984375 C 46.9375 16.015625 46.972656 15.621094 46.984375 14.117188 C 46.984375 12.867188 46.925781 12.144531 46.785156 11.585938 C 45.921875 8.109375 43.695312 5.277344 40.617188 3.726562 C 38.878906 2.851562 37.84375 2.605469 35.742188 2.558594 C 34.519531 2.535156 33.691406 2.570312 33.179688 2.675781 Z M 33.179688 2.675781 " fill-opacity="1" fill-rule="nonzero"/><path fill="#131347" d="M 59.835938 2.640625 C 55.125 3.328125 51.324219 6.792969 50.132812 11.492188 C 49.832031 12.691406 49.832031 15.632812 50.132812 16.738281 C 50.785156 19.164062 51.859375 20.996094 53.550781 22.570312 C 56.628906 25.449219 60.917969 26.417969 64.800781 25.136719 C 66.132812 24.691406 67.378906 24.050781 67.683594 23.664062 C 68.019531 23.234375 68.207031 22.558594 68.113281 22.046875 C 67.949219 21.171875 66.65625 20.226562 65.863281 20.402344 C 65.6875 20.449219 65.117188 20.679688 64.605469 20.9375 C 63.285156 21.589844 62.390625 21.800781 61.105469 21.730469 C 58.449219 21.578125 56.117188 19.980469 54.925781 17.496094 C 54.273438 16.144531 54.121094 15.433594 54.132812 14 C 54.144531 11.945312 54.914062 10.164062 56.441406 8.636719 C 58.109375 6.957031 60.488281 6.175781 62.585938 6.605469 C 62.925781 6.675781 63.695312 6.96875 64.289062 7.246094 C 65.582031 7.84375 66.015625 7.945312 66.585938 7.761719 C 67.859375 7.339844 68.429688 5.941406 67.777344 4.785156 C 67.460938 4.214844 66.410156 3.621094 64.835938 3.109375 C 63.136719 2.558594 61.480469 2.398438 59.835938 2.640625 Z M 59.835938 2.640625 " fill-opacity="1" fill-rule="nonzero"/><path fill="#131347" d="M 114.140625 2.734375 C 113.371094 3.222656 113.40625 2.628906 113.40625 13.636719 C 113.40625 20.402344 113.441406 23.710938 113.53125 23.933594 C 113.695312 24.378906 114.199219 24.902344 114.652344 25.089844 C 115.726562 25.554688 117.078125 24.996094 117.472656 23.933594 C 117.554688 23.710938 117.601562 21.507812 117.601562 17.425781 C 117.601562 14.035156 117.636719 11.257812 117.695312 11.269531 C 117.742188 11.269531 120.5625 14.417969 123.957031 18.277344 C 127.363281 22.125 130.300781 25.378906 130.488281 25.496094 C 131.199219 25.941406 132.296875 25.648438 132.644531 24.9375 C 132.726562 24.75 132.820312 24.109375 132.855469 23.503906 L 132.902344 22.394531 L 130.125 19.128906 C 126.988281 15.433594 116.121094 3.003906 115.808594 2.757812 C 115.46875 2.476562 114.570312 2.464844 114.140625 2.734375 Z M 114.140625 2.734375 " fill-opacity="1" fill-rule="nonzero"/><path fill="#131347" d="M 76.230469 2.992188 C 74.269531 3.246094 72.917969 4.144531 72.171875 5.695312 C 71.519531 7.0625 71.484375 7.527344 71.484375 14.175781 C 71.484375 19.398438 71.519531 20.296875 71.683594 21.03125 C 72.160156 23.09375 73.058594 24.191406 74.867188 24.914062 C 75.566406 25.191406 75.566406 25.191406 81.257812 25.226562 C 86.898438 25.261719 86.945312 25.261719 87.390625 25.007812 C 88.042969 24.644531 88.367188 23.992188 88.3125 23.199219 C 88.253906 22.476562 87.984375 22.046875 87.390625 21.695312 C 87.015625 21.472656 86.726562 21.460938 82.152344 21.402344 C 76.789062 21.332031 76.929688 21.355469 76.441406 20.5625 C 76.019531 19.863281 75.949219 18.875 76.007812 13.636719 C 76.054688 8.414062 76.078125 8.097656 76.578125 7.46875 C 77.105469 6.792969 77.234375 6.78125 82.445312 6.710938 C 87.15625 6.652344 87.226562 6.652344 87.585938 6.394531 C 88.671875 5.625 88.542969 3.773438 87.367188 3.121094 C 87.027344 2.945312 86.503906 2.921875 81.980469 2.910156 C 79.226562 2.898438 76.636719 2.933594 76.230469 2.992188 Z M 76.230469 2.992188 " fill-opacity="1" fill-rule="nonzero"/><path fill="#131347" d="M 129.789062 3.144531 C 129.332031 3.351562 128.972656 3.75 128.738281 4.285156 C 128.585938 4.660156 128.5625 5.476562 128.5625 9.730469 L 128.5625 14.734375 L 130.640625 17.183594 C 131.769531 18.535156 132.75 19.644531 132.796875 19.644531 C 132.84375 19.65625 132.867188 16.261719 132.855469 12.097656 C 132.820312 4.972656 132.808594 4.53125 132.597656 4.109375 C 132.25 3.398438 131.699219 3.050781 130.847656 3.015625 C 130.417969 2.992188 129.996094 3.039062 129.789062 3.144531 Z M 129.789062 3.144531 " fill-opacity="1" fill-rule="nonzero"/><path fill="#131347" d="M 79.085938 12.355469 C 78.085938 12.726562 77.59375 13.671875 77.863281 14.722656 C 78.015625 15.316406 78.691406 15.992188 79.261719 16.097656 C 79.472656 16.132812 81.335938 16.15625 83.402344 16.132812 C 86.992188 16.097656 87.167969 16.085938 87.484375 15.851562 C 88.054688 15.433594 88.332031 14.898438 88.332031 14.265625 C 88.332031 13.496094 88.054688 12.9375 87.484375 12.566406 L 87.015625 12.25 L 83.273438 12.226562 C 80.3125 12.203125 79.4375 12.226562 79.085938 12.355469 Z M 79.085938 12.355469 " fill-opacity="1" fill-rule="nonzero"/><path fill="#131347" d="M 75.074219 30.582031 C 74.351562 30.789062 73.617188 31.398438 73.257812 32.0625 C 73.046875 32.445312 73 32.726562 73 33.589844 C 73 34.8125 73.222656 35.351562 73.992188 36.015625 C 75.109375 36.972656 77.175781 36.992188 78.152344 36.074219 L 78.421875 35.816406 L 78.175781 35.558594 L 77.933594 35.304688 L 77.417969 35.664062 C 76.976562 35.96875 76.8125 36.027344 76.183594 36.027344 C 75.378906 36.015625 74.925781 35.839844 74.433594 35.316406 C 73.304688 34.136719 73.640625 32.109375 75.097656 31.339844 C 75.53125 31.117188 76.730469 31.09375 77.140625 31.304688 C 77.304688 31.398438 77.535156 31.558594 77.675781 31.675781 C 77.910156 31.898438 77.921875 31.898438 78.175781 31.617188 L 78.433594 31.351562 L 78.074219 31.046875 C 77.652344 30.695312 76.707031 30.382812 76.101562 30.394531 C 75.867188 30.394531 75.414062 30.488281 75.074219 30.582031 Z M 75.074219 30.582031 " fill-opacity="1" fill-rule="nonzero"/><path fill="#131347" d="M 121.601562 30.582031 C 120.878906 30.789062 120.144531 31.398438 119.78125 32.0625 C 119.574219 32.445312 119.527344 32.726562 119.527344 33.589844 C 119.527344 34.8125 119.75 35.351562 120.519531 36.015625 C 121.636719 36.972656 123.699219 36.992188 124.679688 36.074219 L 124.949219 35.816406 L 124.703125 35.558594 L 124.460938 35.304688 L 123.945312 35.664062 C 123.503906 35.96875 123.339844 36.027344 122.710938 36.027344 C 121.90625 36.015625 121.449219 35.839844 120.960938 35.316406 C 119.828125 34.136719 120.167969 32.109375 121.625 31.339844 C 122.058594 31.117188 123.257812 31.09375 123.667969 31.304688 C 123.828125 31.398438 124.0625 31.558594 124.203125 31.675781 C 124.4375 31.898438 124.449219 31.898438 124.703125 31.617188 L 124.960938 31.351562 L 124.597656 31.046875 C 124.179688 30.695312 123.234375 30.382812 122.628906 30.394531 C 122.394531 30.394531 121.941406 30.488281 121.601562 30.582031 Z M 121.601562 30.582031 " fill-opacity="1" fill-rule="nonzero"/><path fill="#131347" d="M 81.453125 33.589844 L 81.453125 36.679688 L 85.886719 36.679688 L 85.886719 35.992188 L 84.113281 35.957031 L 82.328125 35.921875 L 82.328125 33.9375 L 83.878906 33.902344 L 85.417969 33.867188 L 85.417969 33.179688 L 82.257812 33.179688 L 82.292969 32.214844 L 82.328125 31.257812 L 84.054688 31.222656 L 85.769531 31.1875 L 85.769531 30.5 L 81.453125 30.5 Z M 81.453125 33.589844 " fill-opacity="1" fill-rule="nonzero"/><path fill="#131347" d="M 89.035156 33.578125 L 89.035156 36.679688 L 89.851562 36.679688 L 89.851562 34.8125 L 90.875 34.8125 L 91.890625 34.824219 L 92.519531 35.746094 C 93.125 36.644531 93.171875 36.679688 93.605469 36.679688 L 94.058594 36.679688 L 93.347656 35.652344 C 92.71875 34.753906 92.660156 34.625 92.835938 34.523438 C 93.6875 34.007812 93.988281 33.425781 93.90625 32.398438 C 93.835938 31.640625 93.582031 31.246094 92.871094 30.847656 C 92.402344 30.59375 92.207031 30.558594 90.699219 30.523438 L 89.035156 30.476562 Z M 92.007812 31.316406 C 92.695312 31.46875 93.113281 31.992188 93.113281 32.667969 C 93.113281 33.121094 93.054688 33.261719 92.730469 33.589844 C 92.296875 34.019531 91.75 34.148438 90.609375 34.089844 L 89.90625 34.054688 L 89.875 32.785156 C 89.863281 32.074219 89.875 31.433594 89.898438 31.351562 C 89.964844 31.175781 91.285156 31.140625 92.007812 31.316406 Z M 92.007812 31.316406 " fill-opacity="1" fill-rule="nonzero"/><path fill="#131347" d="M 98.839844 30.988281 C 98.722656 31.269531 98.09375 32.65625 97.453125 34.078125 L 96.285156 36.679688 L 96.71875 36.679688 C 97.148438 36.679688 97.171875 36.667969 97.488281 35.921875 L 97.800781 35.164062 L 101.125 35.164062 L 101.453125 35.921875 C 101.765625 36.667969 101.777344 36.679688 102.210938 36.679688 L 102.652344 36.679688 L 101.71875 34.605469 C 101.207031 33.472656 100.589844 32.097656 100.34375 31.546875 C 99.925781 30.582031 99.902344 30.558594 99.480469 30.523438 C 99.085938 30.488281 99.050781 30.511719 98.839844 30.988281 Z M 100.390625 33.496094 L 100.800781 34.464844 L 98.128906 34.464844 L 98.234375 34.195312 C 98.292969 34.054688 98.539062 33.496094 98.769531 32.949219 C 99.003906 32.398438 99.261719 31.828125 99.320312 31.664062 C 99.433594 31.386719 99.445312 31.386719 99.714844 31.957031 C 99.855469 32.269531 100.167969 32.972656 100.390625 33.496094 Z M 100.390625 33.496094 " fill-opacity="1" fill-rule="nonzero"/><path fill="#131347" d="M 105.359375 33.589844 L 105.359375 36.679688 L 106.175781 36.679688 L 106.199219 34.464844 L 106.234375 32.261719 L 107.28125 34.03125 C 108.050781 35.316406 108.402344 35.816406 108.578125 35.839844 C 108.785156 35.875 109.007812 35.570312 109.917969 34.03125 L 111.015625 32.191406 L 111.050781 34.429688 L 111.074219 36.679688 L 111.890625 36.679688 L 111.890625 30.488281 L 111.527344 30.523438 C 111.175781 30.558594 111.074219 30.695312 109.917969 32.679688 C 109.242188 33.84375 108.660156 34.800781 108.625 34.8125 C 108.589844 34.8125 107.992188 33.835938 107.304688 32.65625 C 106.117188 30.640625 106.011719 30.5 105.695312 30.5 L 105.359375 30.5 Z M 105.359375 33.589844 " fill-opacity="1" fill-rule="nonzero"/><path fill="#131347" d="M 115.503906 33.589844 L 115.503906 36.679688 L 116.320312 36.679688 L 116.320312 30.5 L 115.503906 30.5 Z M 115.503906 33.589844 " fill-opacity="1" fill-rule="nonzero"/><path fill="#131347" d="M 129.507812 30.988281 C 129.390625 31.269531 128.761719 32.65625 128.121094 34.078125 L 126.953125 36.679688 L 127.386719 36.679688 C 127.816406 36.679688 127.839844 36.667969 128.15625 35.921875 L 128.46875 35.164062 L 131.792969 35.164062 L 132.121094 35.921875 C 132.433594 36.667969 132.445312 36.679688 132.878906 36.679688 L 133.320312 36.679688 L 132.386719 34.605469 C 131.875 33.472656 131.257812 32.097656 131.011719 31.546875 C 130.59375 30.582031 130.570312 30.558594 130.148438 30.523438 C 129.753906 30.488281 129.71875 30.511719 129.507812 30.988281 Z M 131.058594 33.496094 L 131.46875 34.464844 L 128.796875 34.464844 L 128.902344 34.195312 C 128.960938 34.054688 129.203125 33.496094 129.4375 32.949219 C 129.671875 32.398438 129.929688 31.828125 129.984375 31.664062 C 130.101562 31.386719 130.113281 31.386719 130.382812 31.957031 C 130.523438 32.269531 130.835938 32.972656 131.058594 33.496094 Z M 131.058594 33.496094 " fill-opacity="1" fill-rule="nonzero"/></svg>